<svg viewBox="0 0 645.781 189.607" fill="none" xmlns="http://www.w3.org/2000/svg">
  <defs>
    <radialGradient id="footerMark" cx="0" cy="0" r="1" gradientUnits="userSpaceOnUse" gradientTransform="translate(50.1706 121.964) rotate(-90) scale(187.211 185.06)">
      <stop stop-color="#0D29A4" />
      <stop offset="1" stop-color="#475FFA" />
    </radialGradient>
  </defs>
  <path d="M590.944 47.6475C597.036 47.6479 602.548 48.8743 607.473 51.3372C612.529 53.6708 616.417 56.7876 619.139 60.6768V49.784H645.781V140.989C645.781 157.454 641.05 169.645 631.585 177.554C622.251 185.591 610.581 189.607 596.581 189.607C583.099 189.606 572.079 186.174 563.522 179.304C554.966 172.433 550.167 163.679 549.13 153.048H575.188C578.559 162.642 585.885 167.441 597.164 167.441C603.387 167.441 608.574 165.43 612.723 161.411C617.001 157.392 619.139 151.749 619.139 144.489V133.02C616.417 136.778 612.528 139.89 607.473 142.352C602.418 144.686 596.907 145.852 590.944 145.852C578.239 145.852 567.408 141.12 558.463 131.656C549.518 122.063 545.047 110.46 545.047 96.8482C545.047 83.1057 549.517 71.4975 558.463 62.0333C567.408 52.4395 578.239 47.6475 590.944 47.6475ZM374.228 147.019H347.586V136.126C344.993 139.626 341.233 142.676 336.307 145.269C331.38 147.861 325.803 149.155 319.581 149.155C306.747 149.155 295.921 144.168 287.106 134.186C278.29 124.203 273.887 112.274 273.887 98.4014C273.887 84.5292 278.29 72.5994 287.106 62.6166C295.921 52.635 306.747 47.6482 319.581 47.6475C325.803 47.6475 331.38 48.9414 336.307 51.5339C341.233 54.1268 344.993 57.1763 347.586 60.6768V1.1666H374.228V147.019ZM102.288 35.7848H65.1465V147.019H36.7547V35.7848H0V8.9462H102.288V35.7848ZM149.196 48.6174C152.566 48.6174 155.55 49.0065 158.142 49.784V76.8125C153.866 75.3873 149.848 74.6763 146.09 74.676C139.738 74.676 134.616 77.01 130.727 81.6756C126.968 86.2127 125.084 92.5012 125.084 100.538V147.019H98.4421V49.784H125.084V65.3432C126.769 60.5463 129.819 56.592 134.227 53.4805C138.764 50.2403 143.752 48.6179 149.196 48.6174ZM420.939 147.019H394.297V49.784H420.939V147.019ZM495.141 47.6475C506.807 47.648 515.944 51.536 522.556 59.3135C529.297 66.9625 532.668 77.2039 532.668 90.0385V147.019H506.027V94.515C506.027 87.3844 504.539 81.8685 501.557 77.9791C498.575 73.9611 494.359 71.9562 488.914 71.9562C482.432 71.9564 477.184 74.2889 473.165 78.9558C469.276 83.623 467.332 90.4929 467.332 99.568V147.019H440.69V49.784H467.332V60.8667C473.296 52.0527 482.566 47.6475 495.141 47.6475ZM325.224 71.9562C317.834 71.9562 311.869 74.416 307.331 79.3424C302.923 84.269 300.718 90.6226 300.718 98.4014C300.718 106.18 302.923 112.534 307.331 117.46C311.869 122.387 317.834 124.847 325.224 124.847C332.613 124.846 338.512 122.386 342.92 117.46C347.457 112.534 349.729 106.18 349.729 98.4014C349.729 90.6226 347.457 84.269 342.92 79.3424C338.512 74.4165 332.613 71.9563 325.224 71.9562ZM596.581 71.9562C589.71 71.9563 583.878 74.2892 579.082 78.9558C574.285 83.6231 571.885 89.588 571.885 96.8482C571.886 104.107 574.285 110.067 579.082 114.734C583.878 119.401 589.709 121.74 596.581 121.74C603.452 121.74 609.289 119.401 614.086 114.734C618.881 110.068 621.275 104.106 621.276 96.8482C621.276 89.5891 618.882 83.6228 614.086 78.9558C609.289 74.2885 603.452 71.9562 596.581 71.9562ZM407.517 0C412.313 0 416.335 1.68359 419.576 5.05301C422.946 8.29344 424.635 12.2498 424.636 16.9157C424.636 21.583 422.947 25.6043 419.576 28.9751C416.335 32.2163 412.314 33.8382 407.517 33.8382C402.98 33.8375 399.024 32.2155 395.654 28.9751C392.284 25.6047 390.601 21.582 390.601 16.9157C390.602 12.2498 392.284 8.29343 395.654 5.05301C399.024 1.68298 402.98 0.000773985 407.517 0Z" fill="#161146" />
  <g transform="translate(159.7 47.65)">
    <path d="M45.6941 0C51.9166 0 57.4937 1.29394 62.4199 3.88641C67.3465 6.47934 71.1064 9.52885 73.6993 13.0293V2.13651H100.341V99.3713H73.6993V88.4785C71.1064 91.979 67.3465 95.0285 62.4199 97.6214C57.4936 100.214 51.9166 101.508 45.6941 101.508C32.8606 101.507 22.0344 96.5203 13.2192 86.5387C4.40324 76.5559 0 64.6261 0 50.7539C2.52576e-05 36.8818 4.40326 24.9519 13.2192 14.9691C22.0344 4.98758 32.8607 0.000741816 45.6941 0Z" fill="url(#footerMark)" />
  </g>
  <g transform="translate(191.19 77.26)">
    <path d="M41.3247 14.2376C42.9684 14.2377 43.866 16.1342 42.8296 17.4114L22.7602 42.1224C20.7243 44.6262 16.7409 42.4765 17.7143 39.4036L17.7016 39.3909L25.2641 15.5911C25.517 14.7819 26.2754 14.2378 27.1225 14.2376H41.3247ZM20.5122 1.09794C22.5482 -1.40579 26.5318 0.744726 25.5581 3.81766L25.5708 3.83036L18.0083 27.6302C17.7553 28.4392 16.9969 28.9826 16.1499 28.9827H1.94774C0.304118 28.9824 -0.593714 27.086 0.442855 25.8089L20.5122 1.09794Z" fill="#ffffff" />
  </g>
</svg>
