<svg width="142" height="49" viewBox="0 0 142 49" fill="none" xmlns="http://www.w3.org/2000/svg">
<path d="M39.3779 27.4377H36.1953V12.0552H39.3779V27.4377ZM51.3566 16.6965C52.1081 17.3153 52.4617 18.3321 52.4617 19.7464V27.4375H49.4117V20.542C49.4117 19.9232 49.3233 19.4811 49.1908 19.1717C48.8812 18.597 48.3508 18.2878 47.511 18.2878C46.4944 18.2878 45.8313 18.7297 45.4336 19.5697C45.2568 20.0116 45.1242 20.5862 45.1242 21.2934V27.4818H42.1626V16.0776H45.0358V17.7574C45.4334 17.1827 45.7872 16.7406 46.0966 16.4755C46.7154 16.0334 47.4669 15.7682 48.4394 15.7682C49.6327 15.7682 50.6052 16.0775 51.3566 16.6965ZM53.9204 18.2876V16.1659H55.5115V12.9834H58.473V16.1659H60.3296V18.2876H58.473V24.2992C58.473 24.7854 58.5173 25.0507 58.6498 25.1833C58.7824 25.316 59.1359 25.3601 59.7549 25.3601H60.3737V27.5703L58.8708 27.6144C57.4564 27.6587 56.4839 27.4377 55.9976 26.863C55.6441 26.5095 55.5115 25.979 55.5115 25.2717V18.2878L53.9204 18.2876ZM69.4796 16.2986C70.2752 16.6522 70.9381 17.2269 71.4687 17.9784C71.9548 18.6413 72.2199 19.4368 72.3969 20.3209C72.4852 20.8514 72.5295 21.6028 72.4852 22.5753H64.1752C64.2195 23.7247 64.6172 24.5202 65.3687 24.9623C65.8107 25.2274 66.3853 25.4043 67.0042 25.4043C67.6671 25.4043 68.2418 25.2274 68.6396 24.8739C68.8606 24.697 69.0817 24.4319 69.2584 24.0782H72.3083C72.2199 24.7413 71.8664 25.4484 71.2034 26.1558C70.1866 27.2607 68.7723 27.8354 66.9157 27.8354C65.4128 27.8354 64.0425 27.3493 62.8933 26.4209C61.7441 25.4927 61.1694 23.9455 61.1694 21.8681C61.1694 19.8791 61.6998 18.3762 62.7607 17.3153C63.8215 16.2545 65.1477 15.724 66.8273 15.724C67.7998 15.7683 68.6841 15.9449 69.4796 16.2986ZM65.015 18.8623C64.5731 19.3044 64.3078 19.8791 64.2195 20.6305H69.347C69.3027 19.8348 69.0374 19.2603 68.5512 18.8182C68.0651 18.4203 67.4904 18.1994 66.7832 18.1994C66.0318 18.1994 65.4571 18.4203 65.015 18.8623ZM80.53 15.8124H80.7953V18.8623C80.6184 18.8623 80.4416 18.818 80.3091 18.818H79.9555C78.762 18.818 77.9663 19.2158 77.5242 19.9674C77.3033 20.4093 77.1707 21.0724 77.1707 22.0006V27.4375H74.1649V16.0776H76.9938V18.0666C77.4358 17.3152 77.8338 16.7847 78.1873 16.5196C78.762 16.0335 79.4691 15.8124 80.3532 15.8124C80.4416 15.7681 80.4859 15.7681 80.53 15.8124ZM87.0277 20.542C87.6024 20.4536 88.0001 20.3652 88.2212 20.2768C88.6631 20.1001 88.8842 19.8348 88.8842 19.437C88.8842 18.9509 88.7074 18.6413 88.398 18.4646C88.0886 18.2878 87.6023 18.1992 86.9394 18.1992C86.232 18.1992 85.7016 18.3762 85.4365 18.7297C85.2154 18.995 85.0828 19.3487 84.9944 19.7905H82.1213C82.1655 18.774 82.4749 17.9784 82.9611 17.3153C83.7568 16.2986 85.1271 15.8124 87.0277 15.8124C88.2654 15.8124 89.4146 16.0777 90.3871 16.5639C91.3595 17.05 91.8457 17.9784 91.8457 19.3486V25.8905C91.8457 26.2883 91.9342 26.5536 92.0226 26.6862C92.111 26.8187 92.2877 26.9513 92.4646 27.0397V27.4818H89.2378C89.1495 27.2607 89.1052 27.0397 89.0611 26.8187C89.0168 26.5977 89.0168 26.3767 88.9725 26.1115C88.5627 26.5648 88.0857 26.9524 87.5582 27.2609C86.8951 27.6144 86.1879 27.8354 85.3479 27.8354C84.3314 27.8354 83.4474 27.526 82.7843 26.9513C82.1213 26.3766 81.7678 25.5368 81.7678 24.4319C81.7678 23.0174 82.2982 22.0008 83.4033 21.3818C84.022 21.0283 84.8618 20.8071 86.0553 20.6305L87.0277 20.542ZM88.84 21.9122C88.6631 22.0449 88.4423 22.1332 88.2654 22.2218C88.0886 22.3102 87.8233 22.3544 87.4698 22.4428L86.8066 22.5755C86.1879 22.7081 85.7016 22.8406 85.4365 22.9731C84.9503 23.2384 84.7293 23.6804 84.7293 24.2551C84.7293 24.7855 84.8619 25.139 85.1712 25.3601C85.4365 25.5811 85.7901 25.7137 86.232 25.7137C86.8953 25.7137 87.4698 25.537 88.0443 25.139C88.5748 24.7413 88.8842 24.0782 88.8842 23.0616V21.9122H88.84ZM101.172 20.1442C101.128 19.7022 100.996 19.3486 100.73 18.995C100.377 18.5529 99.8906 18.2878 99.1834 18.2878C98.1667 18.2878 97.5036 18.7739 97.1058 19.7907C96.9291 20.3211 96.7964 21.0283 96.7964 21.9124C96.7964 22.7522 96.8848 23.4151 97.1058 23.9455C97.4595 24.8739 98.1224 25.3601 99.139 25.3601C99.8463 25.3601 100.332 25.1833 100.642 24.7854C100.951 24.3878 101.128 23.9014 101.172 23.3269H104.222C104.134 24.2549 103.825 25.0949 103.25 25.8905C102.322 27.1724 100.951 27.8354 99.095 27.8354C97.2385 27.8354 95.9125 27.305 95.0282 26.1999C94.1443 25.0949 93.7465 23.6804 93.7465 21.9565C93.7465 20.0115 94.2327 18.4645 95.1609 17.4037C96.1333 16.2986 97.4152 15.7682 99.1392 15.7682C100.554 15.7682 101.747 16.0777 102.631 16.7406C103.515 17.4037 104.09 18.5088 104.267 20.1442H101.172ZM105.195 18.2876V16.1659H106.786V12.9834H109.748V16.1659H111.604V18.2876H109.748V24.2992C109.748 24.7854 109.792 25.0507 109.924 25.1833C110.057 25.316 110.411 25.3601 111.03 25.3601H111.648V27.5703L110.19 27.6144C108.775 27.6587 107.803 27.4377 107.317 26.863C106.963 26.5095 106.83 25.979 106.83 25.2717V18.2878L105.195 18.2876ZM116.599 14.7075H113.593V11.9668H116.599V14.7075ZM113.549 16.0776H116.555V27.4818H113.549V16.0776ZM126.279 16.0776H129.462L125.351 27.4818H122.213L118.146 16.0776H121.505L123.892 24.476L126.279 16.0776ZM138.17 16.2986C138.965 16.6522 139.628 17.2269 140.159 17.9784C140.645 18.6413 140.91 19.4368 141.087 20.3209C141.175 20.8514 141.219 21.6028 141.175 22.5753H132.865C132.91 23.7247 133.307 24.5202 134.059 24.9623C134.501 25.2274 135.075 25.4043 135.694 25.4043C136.357 25.4043 136.932 25.2274 137.33 24.8739C137.551 24.697 137.772 24.4319 137.949 24.0782H140.998C140.91 24.7413 140.556 25.4484 139.893 26.1558C138.877 27.2607 137.462 27.8354 135.606 27.8354C134.103 27.8354 132.733 27.3493 131.583 26.4209C130.434 25.4927 129.86 23.9455 129.86 21.8681C129.86 19.8791 130.39 18.3762 131.451 17.3153C132.512 16.2545 133.838 15.724 135.517 15.724C136.49 15.7683 137.374 15.9449 138.17 16.2986ZM133.705 18.8623C133.263 19.3044 132.998 19.8791 132.909 20.6305H138.037C137.993 19.8348 137.728 19.2603 137.241 18.8182C136.755 18.4203 136.181 18.1994 135.473 18.1994C134.722 18.1994 134.147 18.4203 133.705 18.8623Z" fill="black"/>
<path d="M21.5006 48.5281H0V24.9077L21.5006 48.5281Z" fill="url(#paint0_linear_6471_6971)"/>
<path d="M18.4743 37.0971C22.0284 37.0971 24.9096 34.2159 24.9096 30.6618C24.9096 27.1077 22.0284 24.2266 18.4743 24.2266C14.9202 24.2266 12.0391 27.1077 12.0391 30.6618C12.0391 34.2159 14.9202 37.0971 18.4743 37.0971Z" fill="#D81222"/>
<path d="M21.5007 0L0 24.9078V48.5284L21.5007 0Z" fill="#D81222"/>
<path d="M36.2837 32.7484H42.9141C44.7264 32.7484 46.0081 33.2788 46.7595 34.3397C47.2016 34.9585 47.4228 35.71 47.4228 36.55C47.4228 37.5223 47.1575 38.318 46.5828 38.9368C46.3177 39.2462 45.8756 39.5556 45.3452 39.8207C46.1407 40.1301 46.7154 40.4395 47.1132 40.8374C47.8204 41.5003 48.1298 42.4287 48.1298 43.6221C48.1298 44.5945 47.8204 45.5229 47.2016 46.3185C46.2734 47.512 44.7705 48.1307 42.7372 48.1307H36.1953V32.7484H36.2837ZM42.1626 39.2462C43.0466 39.2462 43.7539 39.1135 44.2401 38.8925C45.0358 38.4947 45.3894 37.8316 45.3894 36.8151C45.3894 35.7983 44.9915 35.1352 44.1515 34.7817C43.6654 34.6048 43.0025 34.4723 42.0743 34.4723H38.317V39.2462H42.1626ZM42.8698 46.3185C44.1517 46.3185 45.0801 45.9648 45.6103 45.2133C45.964 44.7272 46.1407 44.1968 46.1407 43.5337C46.1407 42.4287 45.6546 41.6773 44.6378 41.2352C44.1074 41.0142 43.4002 40.9258 42.5161 40.9258H38.3613V46.3186L42.8698 46.3185ZM50.4284 36.9034H52.1964V38.8482C52.3291 38.4506 52.6826 38.0084 53.2573 37.478C53.832 36.9476 54.4949 36.6824 55.2463 36.6824H55.4233C55.5116 36.6824 55.6443 36.6824 55.8653 36.7267V38.7157C55.7327 38.7157 55.6443 38.6715 55.5558 38.6715H55.2463C54.3181 38.6715 53.5667 38.9809 53.0805 39.5997C52.5501 40.2187 52.3291 40.9258 52.3291 41.7214V48.175H50.4284V36.9034ZM65.5013 38.0084C66.4736 38.9809 67.0042 40.3954 67.0042 42.2518C67.0042 44.0641 66.5622 45.567 65.6781 46.7162C64.794 47.9097 63.4679 48.4844 61.6115 48.4844C60.0645 48.4844 58.8709 47.954 57.987 46.9374C57.1029 45.8766 56.6166 44.5062 56.6166 42.7381C56.6166 40.8375 57.1027 39.3787 58.0311 38.2294C58.9593 37.1245 60.2413 36.5498 61.8325 36.5498C63.2913 36.594 64.4848 37.0802 65.5013 38.0084ZM64.3079 45.4786C64.7748 44.4984 65.0165 43.4261 65.015 42.3403C65.015 41.2795 64.8383 40.4397 64.5289 39.7766C63.9984 38.7599 63.1143 38.2296 61.8325 38.2296C60.6832 38.2296 59.8877 38.6715 59.3573 39.5556C58.8268 40.4395 58.5615 41.5004 58.5615 42.7381C58.5615 43.9316 58.8268 44.9039 59.3573 45.6996C59.8877 46.4952 60.6832 46.8931 61.8325 46.8931C63.026 46.8931 63.8658 46.407 64.3079 45.4786ZM69.0817 32.7484H70.894V41.6773L75.7121 36.9034H78.0987L73.8111 41.0583L78.3639 48.0866H75.977L72.4408 42.3845L70.8938 43.8874V48.0865H69.0815L69.0817 32.7484ZM86.1879 37.2128C86.9394 37.5665 87.5139 38.0527 87.8676 38.6715C88.2212 39.2462 88.4864 39.9092 88.619 40.6605C88.7517 41.191 88.7958 41.9867 88.7958 43.1359H80.6626C80.7069 44.2853 80.972 45.1691 81.4582 45.8764C81.9443 46.5838 82.7401 46.8931 83.7568 46.8931C84.7291 46.8931 85.5249 46.5838 86.0996 45.9207C86.409 45.5229 86.6743 45.125 86.8067 44.5945H88.6631C88.6189 44.9925 88.4421 45.4786 88.177 45.9648C87.9117 46.4509 87.6023 46.8931 87.2488 47.2025C86.6741 47.7772 85.9669 48.1308 85.1271 48.3518C84.685 48.4844 84.1546 48.5285 83.5801 48.5285C82.2096 48.5285 81.0161 48.0424 80.0438 47.0256C79.0714 46.009 78.5851 44.5945 78.5851 42.7822C78.5851 40.9701 79.0712 39.5113 80.0438 38.4063C81.0161 37.3012 82.298 36.7267 83.8452 36.7267C84.685 36.6381 85.4365 36.8593 86.1879 37.2128ZM86.8951 41.633C86.8067 40.8374 86.63 40.1744 86.3647 39.6882C85.8343 38.7599 84.9944 38.3178 83.8009 38.3178C82.9611 38.3178 82.2097 38.6274 81.6351 39.2462C81.0604 39.865 80.751 40.6605 80.7068 41.633H86.8951ZM91.0501 36.9034H92.8181V38.8482C92.9508 38.4506 93.3043 38.0084 93.879 37.478C94.4537 36.9476 95.1168 36.6824 95.8681 36.6824H96.045C96.1334 36.6824 96.266 36.6824 96.487 36.7267V38.7157C96.3544 38.7157 96.266 38.6715 96.1776 38.6715H95.8681C94.9398 38.6715 94.1884 38.9809 93.7022 39.5997C93.1718 40.2187 92.9508 40.9258 92.9508 41.7214V48.175H91.0501V36.9034ZM99.2716 44.5945C99.3159 45.2135 99.4926 45.6996 99.7578 46.0533C100.244 46.6721 101.084 46.9815 102.277 46.9815C102.985 46.9815 103.604 46.8489 104.178 46.5395C104.709 46.2301 104.974 45.788 104.974 45.125C104.974 44.6388 104.753 44.2851 104.311 44.02C104.045 43.8873 103.471 43.7106 102.675 43.4896L101.172 43.0918C100.2 42.8708 99.4927 42.6057 99.0065 42.2961C98.1667 41.7657 97.7689 41.1026 97.7689 40.1744C97.7689 39.1135 98.1665 38.2737 98.9181 37.6106C99.6696 36.9475 100.73 36.6383 102.056 36.6383C103.78 36.6383 105.018 37.1245 105.769 38.141C106.256 38.7598 106.477 39.4672 106.477 40.1744H104.709C104.664 39.7323 104.532 39.3788 104.266 39.025C103.824 38.5388 103.073 38.2737 101.968 38.2737C101.261 38.2737 100.686 38.4064 100.332 38.6715C99.979 38.9368 99.7578 39.2903 99.7578 39.7323C99.7578 40.2185 100.023 40.6164 100.509 40.8817C100.775 41.0585 101.217 41.1909 101.747 41.3236L103.029 41.633C104.399 41.9424 105.327 42.2961 105.814 42.6055C106.565 43.0916 106.919 43.8431 106.919 44.8598C106.919 45.8764 106.521 46.7162 105.769 47.4236C105.018 48.1308 103.824 48.5285 102.277 48.5285C100.598 48.5285 99.4043 48.1307 98.6971 47.3793C97.9898 46.6279 97.6362 45.6997 97.5477 44.5504H99.2718L99.2716 44.5945Z" fill="black"/>
<defs>
<linearGradient id="paint0_linear_6471_6971" x1="21.4725" y1="36.7185" x2="-0.0333871" y2="36.7185" gradientUnits="userSpaceOnUse">
<stop stop-color="#D81222"/>
<stop offset="1" stop-color="#960B1A"/>
</linearGradient>
</defs>
</svg>
