<svg width="147" height="36" viewBox="0 0 147 36" fill="none" xmlns="http://www.w3.org/2000/svg">
<g clip-path="url(#clip0_6465_6925)">
<path d="M36 18C36 21.816 35.7971 25.5207 35.424 29.0553C35.0509 32.5898 32.4196 35.064 29.0553 35.424C25.5273 35.8036 21.8225 36 18 36C14.1775 36 10.4793 35.7971 6.94473 35.424C3.41018 35.0509 0.936 32.4196 0.576 29.0553C0.196364 25.5273 0 21.8225 0 18C0 14.1775 0.202909 10.4793 0.576 6.94473C0.949091 3.41018 3.58036 0.936 6.94473 0.576C10.4727 0.196364 14.1775 0 18 0C21.8225 0 25.5207 0.202909 29.0553 0.576C32.5898 0.949091 35.064 3.58036 35.424 6.94473C35.8036 10.4727 36 14.1775 36 18Z" fill="url(#paint0_radial_6465_6925)"/>
<path d="M27.3671 14.4923C28.1491 14.4927 28.5763 15.3954 28.0829 16.0031L18.5331 27.7609C17.5643 28.9524 15.6684 27.9292 16.1318 26.467L16.1259 26.4611L19.7245 15.1359C19.845 14.751 20.2063 14.4923 20.6093 14.4923H27.3671ZM17.4638 8.24039C18.4326 7.04901 20.3275 8.07211 19.8642 9.53433L19.871 9.54019L16.2724 20.8654C16.1519 21.2503 15.7906 21.5089 15.3876 21.5089H8.62981C7.84765 21.5088 7.42059 20.6059 7.91399 19.9982L17.4638 8.24039Z" fill="url(#paint1_radial_6465_6925)"/>
</g>
<path d="M138.438 14.2747C139.37 14.2747 140.214 14.4624 140.967 14.8393C141.741 15.1965 142.336 15.6735 142.753 16.2687V14.6016H146.83V28.5596C146.83 31.0794 146.106 32.9452 144.658 34.1555C143.229 35.3855 141.443 36 139.3 36C137.237 36 135.551 35.4747 134.241 34.4233C132.932 33.3717 132.197 32.0321 132.039 30.4052H136.027C136.542 31.8733 137.664 32.6078 139.39 32.6078C140.342 32.6078 141.136 32.3001 141.771 31.685C142.426 31.07 142.753 30.2063 142.753 29.0952V27.34C142.336 27.9152 141.741 28.3914 140.967 28.7683C140.194 29.1253 139.35 29.3038 138.438 29.3039C136.493 29.3039 134.836 28.5797 133.467 27.1313C132.098 25.6632 131.414 23.8874 131.414 21.8043C131.414 19.7012 132.098 17.9247 133.467 16.4763C134.836 15.008 136.493 14.2747 138.438 14.2747ZM79.4327 14.2747C80.385 14.2747 81.2385 14.4727 81.9924 14.8694C82.7464 15.2663 83.3218 15.733 83.7186 16.2687V14.6016H87.7959V29.4824H83.7186V27.8154C83.3218 28.3511 82.7464 28.8178 81.9924 29.2146C81.2385 29.6114 80.385 29.8094 79.4327 29.8094C77.4687 29.8093 75.8119 29.0461 74.4628 27.5185C73.1136 25.9908 72.4397 24.165 72.4397 22.042C72.4397 19.919 73.1136 18.0933 74.4628 16.5655C75.8118 15.038 77.4687 14.2748 79.4327 14.2747ZM105.272 29.4824H101.194V27.8154C100.798 28.3511 100.222 28.8178 99.4682 29.2146C98.7143 29.6114 97.8608 29.8094 96.9085 29.8094C94.9445 29.8093 93.2876 29.0461 91.9386 27.5185C90.5894 25.9908 89.9155 24.165 89.9155 22.042C89.9155 19.919 90.5894 18.0933 91.9386 16.5655C93.2876 15.038 94.9445 14.2748 96.9085 14.2747C97.8608 14.2747 98.7143 14.4727 99.4682 14.8694C100.222 15.2663 100.798 15.733 101.194 16.2687V7.16125H105.272V29.4824ZM63.6541 12.4592H57.97V29.4824H53.6249V12.4592H48V8.35184H63.6541V12.4592ZM70.8329 14.4231C71.3486 14.4231 71.8053 14.4827 72.202 14.6016V18.7381C71.5476 18.52 70.9326 18.4111 70.3575 18.4111C69.3854 18.4111 68.6016 18.7683 68.0064 19.4823C67.4311 20.1767 67.1429 21.1391 67.1428 22.369V29.4824H63.0655V14.6016H67.1428V16.9828C67.4007 16.2487 67.8674 15.6435 68.542 15.1674C69.2363 14.6715 69.9998 14.4232 70.8329 14.4231ZM112.42 29.4824H108.343V14.6016H112.42V29.4824ZM123.776 14.2747C125.562 14.2747 126.96 14.8698 127.972 16.06C129.003 17.2306 129.519 18.798 129.519 20.7622V29.4824H125.442V21.4473C125.442 20.356 125.214 19.5118 124.758 18.9166C124.302 18.3017 123.656 17.9949 122.823 17.9949C121.831 17.9949 121.028 18.3519 120.413 19.0661C119.818 19.7803 119.52 20.8317 119.52 22.2206V29.4824H115.443V14.6016H119.52V16.2977C120.433 14.9488 121.852 14.2747 123.776 14.2747ZM80.2963 17.9949C79.1654 17.9949 78.2525 18.3713 77.5581 19.1252C76.8835 19.8792 76.546 20.8516 76.546 22.042C76.546 23.2325 76.8835 24.2048 77.5581 24.9588C78.2525 25.7127 79.1654 26.0892 80.2963 26.0892C81.4272 26.0892 82.3299 25.7127 83.0045 24.9588C83.6989 24.2048 84.0466 23.2325 84.0466 22.042C84.0466 20.8516 83.6989 19.8792 83.0045 19.1252C82.3299 18.3714 81.4272 17.9949 80.2963 17.9949ZM97.7721 17.9949C96.6412 17.9949 95.7283 18.3713 95.0339 19.1252C94.3593 19.8792 94.0218 20.8516 94.0218 22.042C94.0218 23.2325 94.3593 24.2048 95.0339 24.9588C95.7283 25.7127 96.6412 26.0892 97.7721 26.0892C98.9029 26.0892 99.8057 25.7127 100.48 24.9588C101.175 24.2048 101.522 23.2325 101.522 22.042C101.522 20.8516 101.175 19.8792 100.48 19.1252C99.8057 18.3714 98.9029 17.9949 97.7721 17.9949ZM139.3 17.9949C138.249 17.9949 137.356 18.3519 136.622 19.0661C135.888 19.7804 135.521 20.6932 135.521 21.8043C135.521 22.9152 135.888 23.8273 136.622 24.5415C137.356 25.2558 138.249 25.6138 139.3 25.6138C140.352 25.6138 141.245 25.2558 141.98 24.5415C142.713 23.8274 143.08 22.915 143.08 21.8043C143.08 20.6934 142.713 19.7803 141.98 19.0661C141.245 18.3518 140.352 17.9949 139.3 17.9949Z" fill="white"/>
<path opacity="0.6" d="M109.57 9.93274C109.816 9.93279 110.015 10.0099 110.168 10.1632C110.329 10.3164 110.409 10.5229 110.409 10.7833C110.409 11.0516 110.329 11.2588 110.168 11.4044C110.015 11.55 109.816 11.6231 109.57 11.6232C109.325 11.6232 109.122 11.5501 108.961 11.4044C108.808 11.2588 108.73 11.0517 108.73 10.7833C108.731 10.5229 108.808 10.3165 108.961 10.1632C109.122 10.0099 109.325 9.93274 109.57 9.93274ZM133.505 9.93274C133.75 9.93283 133.949 10.01 134.103 10.1632C134.263 10.3164 134.344 10.523 134.344 10.7833C134.344 11.0515 134.263 11.2588 134.103 11.4044C133.949 11.55 133.75 11.6231 133.505 11.6232C133.26 11.6232 133.056 11.5501 132.895 11.4044C132.741 11.2588 132.665 11.0514 132.665 10.7833C132.665 10.5231 132.742 10.3164 132.895 10.1632C133.056 10.0099 133.26 9.93274 133.505 9.93274ZM113.958 5.36731C114.656 5.36736 115.234 5.52876 115.694 5.85071C116.154 6.16503 116.446 6.6668 116.568 7.35657H115.223C115.154 7.08838 115.004 6.88516 114.774 6.74719C114.544 6.60919 114.264 6.54016 113.935 6.54016C113.643 6.54018 113.394 6.59405 113.188 6.70129C112.981 6.80853 112.812 6.95405 112.682 7.13782C112.551 7.32182 112.455 7.53702 112.394 7.78235C112.34 8.01988 112.313 8.26892 112.313 8.52942C112.313 8.79775 112.344 9.05152 112.405 9.28918C112.467 9.52647 112.562 9.73317 112.692 9.9093C112.823 10.0778 112.991 10.2161 113.198 10.3234C113.405 10.423 113.655 10.4728 113.946 10.4728C114.291 10.4728 114.575 10.3965 114.797 10.2433C115.027 10.09 115.173 9.88686 115.234 9.63391H116.591C116.529 9.97873 116.415 10.2775 116.246 10.5304C116.085 10.7833 115.886 10.9905 115.648 11.1515C115.411 11.3125 115.146 11.4313 114.854 11.5079C114.563 11.5769 114.252 11.6115 113.923 11.6115C113.432 11.6114 113.007 11.5393 112.646 11.3937C112.286 11.2404 111.984 11.0291 111.738 10.7609C111.501 10.4849 111.32 10.159 111.197 9.78333C111.082 9.40012 111.025 8.97849 111.025 8.51868C111.025 8.05868 111.086 7.63638 111.209 7.25305C111.339 6.86977 111.531 6.53977 111.784 6.26379C112.037 5.98791 112.344 5.76947 112.704 5.60852C113.064 5.44752 113.483 5.36731 113.958 5.36731ZM119.863 5.36731C120.346 5.36732 120.772 5.44354 121.14 5.5968C121.508 5.75014 121.818 5.96533 122.071 6.24133C122.332 6.50965 122.528 6.83558 122.658 7.21887C122.788 7.60214 122.854 8.02768 122.854 8.49524C122.854 8.97054 122.789 9.40001 122.658 9.78333C122.536 10.159 122.347 10.4849 122.094 10.7609C121.841 11.0367 121.527 11.2481 121.151 11.3937C120.783 11.5393 120.354 11.6114 119.863 11.6115C119.38 11.6115 118.955 11.5393 118.587 11.3937C118.219 11.2404 117.908 11.0292 117.655 10.7609C117.41 10.4849 117.222 10.1549 117.092 9.77161C116.969 9.3883 116.908 8.96286 116.908 8.49524C116.908 8.02761 116.969 7.60218 117.092 7.21887C117.222 6.83554 117.414 6.50967 117.667 6.24133C117.92 5.96538 118.231 5.75012 118.599 5.5968C118.967 5.44361 119.388 5.36731 119.863 5.36731ZM136.466 8.83997C136.466 9.3613 136.577 9.76431 136.8 10.048C137.03 10.3237 137.378 10.465 137.846 10.4728C138.352 10.4728 138.712 10.3314 138.927 10.048C139.141 9.76431 139.249 9.3613 139.249 8.83997V5.47083H140.549V8.88586C140.549 9.3917 140.48 9.82135 140.342 10.174C140.204 10.5189 140.016 10.7991 139.778 11.0138C139.541 11.2208 139.256 11.3741 138.927 11.4738C138.605 11.5657 138.244 11.6115 137.846 11.6115C137.003 11.6114 136.343 11.3931 135.868 10.9562C135.4 10.5192 135.167 9.82886 135.167 8.88586V5.47083H136.466V8.83997ZM143.917 5.36731C144.292 5.36733 144.641 5.41715 144.963 5.51672C145.285 5.61637 145.565 5.78498 145.803 6.02258C146.071 6.29858 146.252 6.62851 146.344 7.01184C146.436 7.39499 146.481 7.81269 146.481 8.26477V11.5314H145.343L145.285 10.7833C145.086 11.0669 144.822 11.2781 144.492 11.4161C144.163 11.5465 143.794 11.6115 143.388 11.6115C143.066 11.6114 142.77 11.5738 142.502 11.4972C142.241 11.4205 142.012 11.3048 141.812 11.1515C141.613 10.9905 141.456 10.7954 141.341 10.5656C141.226 10.3279 141.168 10.0589 141.168 9.75989C141.168 9.43038 141.234 9.15093 141.364 8.92102C141.495 8.68342 141.67 8.49148 141.893 8.34583C142.123 8.20016 142.392 8.09256 142.698 8.02356C143.005 7.94697 143.327 7.90833 143.664 7.90833H145.217C145.217 7.46391 145.116 7.1194 144.917 6.87415C144.718 6.62886 144.369 6.50197 143.871 6.49426C143.58 6.49426 143.326 6.54401 143.111 6.64368C142.905 6.74329 142.767 6.90822 142.698 7.13782H141.353C141.399 6.81602 141.502 6.54364 141.663 6.32141C141.832 6.09924 142.031 5.91524 142.261 5.76965C142.498 5.62399 142.759 5.52044 143.043 5.45911C143.334 5.3978 143.626 5.36731 143.917 5.36731ZM129.955 5.36731C130.3 5.36731 130.595 5.42516 130.841 5.54016C131.094 5.6551 131.293 5.81576 131.438 6.02258C131.592 6.22957 131.703 6.47121 131.772 6.74719C131.841 7.01545 131.876 7.30293 131.876 7.6095V11.5314H130.565V8.0929C130.565 7.90902 130.553 7.72502 130.53 7.54114C130.507 7.35714 130.458 7.19169 130.381 7.04602C130.312 6.89279 130.208 6.76981 130.07 6.67786C129.932 6.58599 129.748 6.54017 129.519 6.54016C129.273 6.54016 129.07 6.59803 128.909 6.71301C128.756 6.82793 128.633 6.96931 128.541 7.13782C128.457 7.30643 128.399 7.49842 128.368 7.71301C128.338 7.91997 128.322 8.12715 128.322 8.33411V11.5314H127.023V8.06946C127.023 7.89334 127.011 7.71725 126.988 7.54114C126.973 7.35714 126.931 7.19169 126.862 7.04602C126.793 6.90042 126.69 6.78155 126.552 6.68958C126.421 6.58991 126.237 6.54016 125.999 6.54016C125.769 6.54024 125.566 6.60214 125.39 6.72473C125.221 6.83969 125.091 6.98913 124.999 7.17297C124.907 7.34916 124.846 7.54446 124.815 7.75891C124.785 7.96586 124.769 8.15781 124.769 8.33411V11.5314H123.47V5.47083H124.723L124.78 6.2179C125.202 5.65066 125.754 5.36731 126.437 5.36731C126.866 5.36732 127.211 5.45563 127.472 5.63196C127.732 5.80827 127.935 6.04595 128.081 6.34485C128.319 6.02291 128.587 5.78124 128.886 5.62024C129.192 5.45162 129.549 5.36736 129.955 5.36731ZM143.951 8.83997C143.729 8.83997 143.506 8.85926 143.284 8.89758C143.062 8.92826 142.87 9.00849 142.709 9.13879C142.556 9.26146 142.479 9.44214 142.479 9.67981C142.48 9.97111 142.583 10.1935 142.79 10.3468C143.005 10.4924 143.266 10.5656 143.572 10.5656C143.81 10.5655 144.028 10.5341 144.228 10.4728C144.434 10.4114 144.61 10.3118 144.756 10.174C144.901 10.0283 145.013 9.84852 145.09 9.63391C145.174 9.41158 145.217 9.14663 145.217 8.83997H143.951ZM119.863 6.54016C119.572 6.54016 119.322 6.58991 119.115 6.68958C118.908 6.78918 118.737 6.92753 118.599 7.10364C118.461 7.27997 118.357 7.49112 118.288 7.73645C118.227 7.97409 118.195 8.231 118.195 8.50696C118.195 8.78288 118.227 9.03986 118.288 9.27747C118.357 9.51501 118.457 9.7223 118.587 9.89856C118.725 10.0748 118.898 10.2161 119.104 10.3234C119.319 10.423 119.572 10.4728 119.863 10.4728C120.162 10.4728 120.415 10.423 120.622 10.3234C120.837 10.2161 121.009 10.0748 121.14 9.89856C121.278 9.72229 121.377 9.51502 121.438 9.27747C121.507 9.03986 121.542 8.78288 121.542 8.50696C121.542 8.231 121.507 7.97408 121.438 7.73645C121.377 7.49112 121.278 7.27997 121.14 7.10364C121.009 6.92735 120.837 6.78922 120.622 6.68958C120.415 6.58998 120.162 6.54017 119.863 6.54016Z" fill="white"/>
<defs>
<radialGradient id="paint0_radial_6465_6925" cx="0" cy="0" r="1" gradientUnits="userSpaceOnUse" gradientTransform="translate(18 43.2547) rotate(-90) scale(39.0644)">
<stop stop-color="#C7D4FF"/>
<stop offset="0.322115" stop-color="#F2F5FF"/>
<stop offset="1" stop-color="white"/>
</radialGradient>
<radialGradient id="paint1_radial_6465_6925" cx="0" cy="0" r="1" gradientUnits="userSpaceOnUse" gradientTransform="translate(17.9984 32.4278) rotate(-90) scale(37.9291 37.9753)">
<stop stop-color="#1339D3"/>
<stop offset="0.711538" stop-color="#1E278B"/>
<stop offset="1" stop-color="#000E47"/>
</radialGradient>
<clipPath id="clip0_6465_6925">
<rect width="36" height="36" fill="white"/>
</clipPath>
</defs>
</svg>
