<svg width="150" height="36" viewBox="0 0 150 36" fill="none" xmlns="http://www.w3.org/2000/svg">
<g clip-path="url(#clip0_6465_6934)">
<path d="M36 18C36 21.816 35.7971 25.5207 35.424 29.0553C35.0509 32.5898 32.4196 35.064 29.0553 35.424C25.5273 35.8036 21.8225 36 18 36C14.1775 36 10.4793 35.7971 6.94473 35.424C3.41018 35.0509 0.936 32.4196 0.576 29.0553C0.196364 25.5273 0 21.8225 0 18C0 14.1775 0.202909 10.4793 0.576 6.94473C0.949091 3.41018 3.58036 0.936 6.94473 0.576C10.4727 0.196364 14.1775 0 18 0C21.8225 0 25.5207 0.202909 29.0553 0.576C32.5898 0.949091 35.064 3.58036 35.424 6.94473C35.8036 10.4727 36 14.1775 36 18Z" fill="url(#paint0_radial_6465_6934)"/>
<path d="M36 18C36 21.816 35.7971 25.5207 35.424 29.0553C35.0509 32.5898 32.4196 35.064 29.0553 35.424C25.5273 35.8036 21.8225 36 18 36C14.1775 36 10.4793 35.7971 6.94473 35.424C3.41018 35.0509 0.936 32.4196 0.576 29.0553C0.196364 25.5273 0 21.8225 0 18C0 14.1775 0.202909 10.4793 0.576 6.94473C0.949091 3.41018 3.58036 0.936 6.94473 0.576C10.4727 0.196364 14.1775 0 18 0C21.8225 0 25.5207 0.202909 29.0553 0.576C32.5898 0.949091 35.064 3.58036 35.424 6.94473C35.8036 10.4727 36 14.1775 36 18Z" fill="url(#paint1_radial_6465_6934)"/>
<path d="M27.3671 14.4923C28.1491 14.4927 28.5763 15.3954 28.0829 16.0031L18.5331 27.7609C17.5643 28.9524 15.6684 27.9292 16.1318 26.467L16.1259 26.4611L19.7245 15.1359C19.845 14.751 20.2063 14.4923 20.6093 14.4923H27.3671ZM17.4638 8.24039C18.4326 7.04901 20.3275 8.07211 19.8642 9.53433L19.871 9.54019L16.2724 20.8654C16.1519 21.2503 15.7906 21.5089 15.3876 21.5089H8.62981C7.84765 21.5088 7.42059 20.6059 7.91399 19.9982L17.4638 8.24039Z" fill="url(#paint2_radial_6465_6934)"/>
<path d="M27.3671 14.4923C28.1491 14.4927 28.5763 15.3954 28.0829 16.0031L18.5331 27.7609C17.5643 28.9524 15.6684 27.9292 16.1318 26.467L16.1259 26.4611L19.7245 15.1359C19.845 14.751 20.2063 14.4923 20.6093 14.4923H27.3671ZM17.4638 8.24039C18.4326 7.04901 20.3275 8.07211 19.8642 9.53433L19.871 9.54019L16.2724 20.8654C16.1519 21.2503 15.7906 21.5089 15.3876 21.5089H8.62981C7.84765 21.5088 7.42059 20.6059 7.91399 19.9982L17.4638 8.24039Z" fill="url(#paint3_radial_6465_6934)"/>
</g>
<g clip-path="url(#clip1_6465_6934)">
<path d="M138.438 14.2747C139.37 14.2747 140.214 14.4624 140.967 14.8393C141.741 15.1965 142.336 15.6735 142.753 16.2687V14.6016H146.83V28.5596C146.83 31.0794 146.106 32.9452 144.658 34.1555C143.229 35.3855 141.443 36 139.3 36C137.237 36 135.551 35.4747 134.241 34.4233C132.932 33.3717 132.197 32.0321 132.039 30.4052H136.027C136.542 31.8733 137.664 32.6078 139.39 32.6078C140.342 32.6078 141.136 32.3001 141.771 31.685C142.426 31.07 142.753 30.2063 142.753 29.0952V27.34C142.336 27.9152 141.741 28.3914 140.967 28.7683C140.194 29.1253 139.35 29.3038 138.438 29.3039C136.493 29.3039 134.836 28.5797 133.467 27.1313C132.098 25.6632 131.414 23.8874 131.414 21.8043C131.414 19.7012 132.098 17.9247 133.467 16.4763C134.836 15.008 136.493 14.2747 138.438 14.2747ZM79.4327 14.2747C80.385 14.2747 81.2385 14.4727 81.9924 14.8694C82.7464 15.2663 83.3218 15.733 83.7186 16.2687V14.6016H87.7959V29.4824H83.7186V27.8154C83.3218 28.3511 82.7464 28.8178 81.9924 29.2146C81.2385 29.6114 80.385 29.8094 79.4327 29.8094C77.4687 29.8093 75.8119 29.0461 74.4628 27.5185C73.1136 25.9908 72.4397 24.165 72.4397 22.042C72.4397 19.919 73.1136 18.0933 74.4628 16.5655C75.8118 15.038 77.4687 14.2748 79.4327 14.2747ZM105.272 29.4824H101.194V27.8154C100.798 28.3511 100.222 28.8178 99.4682 29.2146C98.7143 29.6114 97.8608 29.8094 96.9085 29.8094C94.9445 29.8093 93.2876 29.0461 91.9386 27.5185C90.5894 25.9908 89.9155 24.165 89.9155 22.042C89.9155 19.919 90.5894 18.0933 91.9386 16.5655C93.2876 15.038 94.9445 14.2748 96.9085 14.2747C97.8608 14.2747 98.7143 14.4727 99.4682 14.8694C100.222 15.2663 100.798 15.733 101.194 16.2687V7.16125H105.272V29.4824ZM63.6541 12.4592H57.97V29.4824H53.6249V12.4592H48V8.35184H63.6541V12.4592ZM70.8329 14.4231C71.3486 14.4231 71.8053 14.4827 72.202 14.6016V18.7381C71.5476 18.52 70.9326 18.4111 70.3575 18.4111C69.3854 18.4111 68.6016 18.7683 68.0064 19.4823C67.4311 20.1767 67.1429 21.1391 67.1428 22.369V29.4824H63.0655V14.6016H67.1428V16.9828C67.4007 16.2487 67.8674 15.6435 68.542 15.1674C69.2363 14.6715 69.9998 14.4232 70.8329 14.4231ZM112.42 29.4824H108.343V14.6016H112.42V29.4824ZM123.776 14.2747C125.562 14.2747 126.96 14.8698 127.972 16.06C129.003 17.2306 129.519 18.798 129.519 20.7622V29.4824H125.442V21.4473C125.442 20.356 125.214 19.5118 124.758 18.9166C124.302 18.3017 123.656 17.9949 122.823 17.9949C121.831 17.9949 121.028 18.3519 120.413 19.0661C119.818 19.7803 119.52 20.8317 119.52 22.2206V29.4824H115.443V14.6016H119.52V16.2977C120.433 14.9488 121.852 14.2747 123.776 14.2747ZM80.2963 17.9949C79.1654 17.9949 78.2525 18.3713 77.5581 19.1252C76.8835 19.8792 76.546 20.8516 76.546 22.042C76.546 23.2325 76.8835 24.2048 77.5581 24.9588C78.2525 25.7127 79.1654 26.0892 80.2963 26.0892C81.4272 26.0892 82.3299 25.7127 83.0045 24.9588C83.6989 24.2048 84.0466 23.2325 84.0466 22.042C84.0466 20.8516 83.6989 19.8792 83.0045 19.1252C82.3299 18.3714 81.4272 17.9949 80.2963 17.9949ZM97.7721 17.9949C96.6412 17.9949 95.7283 18.3713 95.0339 19.1252C94.3593 19.8792 94.0218 20.8516 94.0218 22.042C94.0218 23.2325 94.3593 24.2048 95.0339 24.9588C95.7283 25.7127 96.6412 26.0892 97.7721 26.0892C98.9029 26.0892 99.8057 25.7127 100.48 24.9588C101.175 24.2048 101.522 23.2325 101.522 22.042C101.522 20.8516 101.175 19.8792 100.48 19.1252C99.8057 18.3714 98.9029 17.9949 97.7721 17.9949ZM139.3 17.9949C138.249 17.9949 137.356 18.3519 136.622 19.0661C135.888 19.7804 135.521 20.6932 135.521 21.8043C135.521 22.9152 135.888 23.8273 136.622 24.5415C137.356 25.2558 138.249 25.6138 139.3 25.6138C140.352 25.6138 141.245 25.2558 141.98 24.5415C142.713 23.8274 143.08 22.915 143.08 21.8043C143.08 20.6934 142.713 19.7803 141.98 19.0661C141.245 18.3518 140.352 17.9949 139.3 17.9949Z" fill="#130F36"/>
<path opacity="0.5" d="M109.57 9.93262C109.816 9.93266 110.015 10.0098 110.168 10.1631C110.329 10.3164 110.409 10.5236 110.409 10.7842C110.409 11.0522 110.329 11.2587 110.168 11.4043C110.015 11.5499 109.816 11.623 109.57 11.623C109.325 11.623 109.122 11.55 108.961 11.4043C108.808 11.2587 108.731 11.0523 108.73 10.7842C108.73 10.5235 108.808 10.3164 108.961 10.1631C109.122 10.0098 109.325 9.93262 109.57 9.93262ZM133.505 9.93262C133.75 9.9327 133.949 10.0098 134.103 10.1631C134.263 10.3164 134.344 10.5236 134.344 10.7842C134.344 11.0522 134.263 11.2587 134.103 11.4043C133.949 11.5499 133.75 11.623 133.505 11.623C133.26 11.623 133.056 11.55 132.895 11.4043C132.742 11.2587 132.665 11.052 132.665 10.7842C132.665 10.5237 132.741 10.3164 132.895 10.1631C133.056 10.0098 133.26 9.93262 133.505 9.93262ZM113.958 5.36719C114.656 5.36724 115.234 5.52863 115.694 5.85059C116.154 6.16489 116.446 6.66671 116.568 7.35645H115.223C115.154 7.08829 115.004 6.88502 114.774 6.74707C114.544 6.60907 114.264 6.54004 113.935 6.54004C113.643 6.54005 113.394 6.59395 113.188 6.70117C112.981 6.80851 112.812 6.95467 112.682 7.13867C112.551 7.32266 112.455 7.53692 112.394 7.78223C112.34 8.01975 112.314 8.2688 112.313 8.5293C112.313 8.79763 112.344 9.0514 112.405 9.28906C112.467 9.5266 112.562 9.7339 112.692 9.91016C112.823 10.0787 112.991 10.2169 113.198 10.3242C113.405 10.4239 113.655 10.4736 113.946 10.4736C114.291 10.4736 114.575 10.3964 114.797 10.2432C115.027 10.0898 115.173 9.88679 115.234 9.63379H116.591C116.53 9.97862 116.415 10.2774 116.246 10.5303C116.085 10.7832 115.886 10.9904 115.648 11.1514C115.411 11.3124 115.146 11.4311 114.854 11.5078C114.563 11.5768 114.252 11.6113 113.923 11.6113C113.432 11.6113 113.007 11.5392 112.646 11.3936C112.286 11.2402 111.984 11.029 111.738 10.7607C111.501 10.4847 111.32 10.1589 111.197 9.7832C111.082 9.4 111.025 8.97837 111.025 8.51855C111.025 8.05855 111.086 7.63626 111.209 7.25293C111.339 6.8698 111.531 6.54055 111.784 6.26465C112.037 5.98865 112.344 5.7694 112.704 5.6084C113.064 5.44741 113.483 5.36719 113.958 5.36719ZM119.863 5.36719C120.346 5.36719 120.772 5.44433 121.14 5.59766C121.508 5.75099 121.818 5.96523 122.071 6.24121C122.332 6.50954 122.528 6.83542 122.658 7.21875C122.788 7.60201 122.854 8.02756 122.854 8.49512C122.854 8.97037 122.788 9.39992 122.658 9.7832C122.536 10.1589 122.347 10.4847 122.094 10.7607C121.841 11.0366 121.527 11.2479 121.151 11.3936C120.783 11.5392 120.354 11.6113 119.863 11.6113C119.38 11.6113 118.955 11.5391 118.587 11.3936C118.219 11.2402 117.908 11.0291 117.655 10.7607C117.41 10.4847 117.222 10.1548 117.092 9.77148C116.969 9.38821 116.908 8.9627 116.908 8.49512C116.908 8.0275 116.969 7.60205 117.092 7.21875C117.222 6.83543 117.414 6.50954 117.667 6.24121C117.92 5.96529 118.231 5.75096 118.599 5.59766C118.967 5.44438 119.388 5.36719 119.863 5.36719ZM136.466 8.83984C136.466 9.36118 136.577 9.76418 136.8 10.0479C137.03 10.3237 137.378 10.4659 137.846 10.4736C138.352 10.4736 138.712 10.3314 138.927 10.0479C139.141 9.76418 139.249 9.36118 139.249 8.83984V5.4707H140.549V8.88672C140.549 9.3923 140.48 9.82135 140.342 10.1738C140.204 10.5187 140.016 10.799 139.778 11.0137C139.541 11.2207 139.256 11.374 138.927 11.4736C138.605 11.5656 138.244 11.6113 137.846 11.6113C137.003 11.6113 136.343 11.393 135.868 10.9561C135.401 10.5191 135.167 9.82945 135.167 8.88672V5.4707H136.466V8.83984ZM143.917 5.36719C144.292 5.3672 144.641 5.41704 144.963 5.5166C145.285 5.61624 145.565 5.78489 145.803 6.02246C146.071 6.29846 146.252 6.62839 146.344 7.01172C146.436 7.39503 146.481 7.81332 146.481 8.26562V11.5312H145.343L145.285 10.7842C145.086 11.0675 144.822 11.2781 144.492 11.416C144.163 11.5463 143.794 11.6113 143.388 11.6113C143.066 11.6113 142.77 11.5737 142.502 11.4971C142.241 11.4204 142.012 11.3047 141.812 11.1514C141.613 10.9904 141.456 10.7953 141.341 10.5654C141.226 10.3278 141.168 10.0588 141.168 9.75977C141.168 9.43031 141.234 9.15079 141.364 8.9209C141.495 8.68332 141.67 8.49134 141.893 8.3457C142.123 8.20004 142.392 8.09244 142.698 8.02344C143.005 7.94685 143.327 7.90918 143.664 7.90918H145.217C145.217 7.46452 145.116 7.11936 144.917 6.87402C144.718 6.62874 144.369 6.50185 143.871 6.49414C143.58 6.49414 143.326 6.54389 143.111 6.64355C142.905 6.74324 142.767 6.90879 142.698 7.13867H141.353C141.399 6.81667 141.502 6.54362 141.663 6.32129C141.832 6.09915 142.031 5.91511 142.261 5.76953C142.498 5.62388 142.759 5.52031 143.043 5.45898C143.334 5.39768 143.626 5.36719 143.917 5.36719ZM129.955 5.36719C130.3 5.36719 130.595 5.42504 130.841 5.54004C131.094 5.65496 131.293 5.81566 131.438 6.02246C131.592 6.22942 131.703 6.47114 131.772 6.74707C131.841 7.01529 131.876 7.30285 131.876 7.60938V11.5312H130.565V8.09277C130.565 7.90885 130.553 7.72494 130.53 7.54102C130.507 7.35702 130.458 7.19157 130.381 7.0459C130.312 6.89276 130.208 6.77064 130.07 6.67871C129.932 6.58672 129.749 6.54005 129.519 6.54004C129.273 6.54004 129.07 6.59793 128.909 6.71289C128.756 6.82789 128.633 6.97001 128.541 7.13867C128.457 7.30718 128.399 7.49848 128.368 7.71289C128.338 7.9198 128.322 8.12707 128.322 8.33398V11.5312H127.023V8.06934C127.023 7.89322 127.011 7.71713 126.988 7.54102C126.973 7.35702 126.931 7.19157 126.862 7.0459C126.793 6.90033 126.69 6.78141 126.552 6.68945C126.421 6.58979 126.237 6.54004 125.999 6.54004C125.769 6.54012 125.566 6.60202 125.39 6.72461C125.221 6.83958 125.091 6.98899 124.999 7.17285C124.907 7.34903 124.846 7.54435 124.815 7.75879C124.785 7.96569 124.769 8.15772 124.769 8.33398V11.5312H123.47V5.4707H124.723L124.78 6.21777C125.202 5.65059 125.754 5.36719 126.437 5.36719C126.866 5.3672 127.211 5.45551 127.472 5.63184C127.732 5.80816 127.935 6.0458 128.081 6.34473C128.319 6.0228 128.587 5.78111 128.886 5.62012C129.192 5.4515 129.549 5.36724 129.955 5.36719ZM143.951 8.83984C143.729 8.83985 143.506 8.85914 143.284 8.89746C143.062 8.92814 142.87 9.00933 142.709 9.13965C142.556 9.2623 142.48 9.44226 142.479 9.67969C142.479 9.97102 142.583 10.1933 142.79 10.3467C143.005 10.4923 143.266 10.5654 143.572 10.5654C143.81 10.5654 144.028 10.5349 144.228 10.4736C144.434 10.4123 144.61 10.3118 144.756 10.1738C144.902 10.0282 145.013 9.84844 145.09 9.63379C145.174 9.41146 145.217 9.14651 145.217 8.83984H143.951ZM119.863 6.54004C119.572 6.54004 119.322 6.58979 119.115 6.68945C118.908 6.78904 118.737 6.92743 118.599 7.10352C118.461 7.27984 118.357 7.49101 118.288 7.73633C118.227 7.97399 118.195 8.23084 118.195 8.50684C118.195 8.7828 118.227 9.0397 118.288 9.27734C118.357 9.51493 118.457 9.72215 118.587 9.89844C118.725 10.0747 118.898 10.2169 119.104 10.3242C119.319 10.4238 119.572 10.4736 119.863 10.4736C120.162 10.4736 120.415 10.4238 120.622 10.3242C120.837 10.2169 121.009 10.0747 121.14 9.89844C121.278 9.72214 121.377 9.51495 121.438 9.27734C121.507 9.0397 121.542 8.7828 121.542 8.50684C121.542 8.23084 121.507 7.97399 121.438 7.73633C121.377 7.49099 121.278 7.27985 121.14 7.10352C121.009 6.92727 120.837 6.78909 120.622 6.68945C120.415 6.58987 120.162 6.54005 119.863 6.54004Z" fill="#130F36"/>
</g>
<defs>
<radialGradient id="paint0_radial_6465_6934" cx="0" cy="0" r="1" gradientUnits="userSpaceOnUse" gradientTransform="translate(18 43.2547) rotate(-90) scale(39.0644)">
<stop stop-color="#C7D4FF"/>
<stop offset="0.322115" stop-color="#F2F5FF"/>
<stop offset="1" stop-color="white"/>
</radialGradient>
<radialGradient id="paint1_radial_6465_6934" cx="0" cy="0" r="1" gradientUnits="userSpaceOnUse" gradientTransform="translate(18 43.2547) rotate(-90) scale(66.3949)">
<stop stop-color="#1339D3"/>
<stop offset="0.711538" stop-color="#1E278B"/>
<stop offset="1" stop-color="#000E47"/>
</radialGradient>
<radialGradient id="paint2_radial_6465_6934" cx="0" cy="0" r="1" gradientUnits="userSpaceOnUse" gradientTransform="translate(17.9984 32.4278) rotate(-90) scale(37.9291 37.9753)">
<stop stop-color="#1339D3"/>
<stop offset="0.711538" stop-color="#1E278B"/>
<stop offset="1" stop-color="#000E47"/>
</radialGradient>
<radialGradient id="paint3_radial_6465_6934" cx="0" cy="0" r="1" gradientUnits="userSpaceOnUse" gradientTransform="translate(17.9984 32.4278) rotate(-90) scale(22.3161 22.3433)">
<stop stop-color="#C7D4FF"/>
<stop offset="0.322115" stop-color="#F2F5FF"/>
<stop offset="1" stop-color="white"/>
</radialGradient>
<clipPath id="clip0_6465_6934">
<rect width="36" height="36" fill="white"/>
</clipPath>
<clipPath id="clip1_6465_6934">
<rect width="101.191" height="34.4687" fill="white" transform="translate(48 1.53125)"/>
</clipPath>
</defs>
</svg>
