<svg width="36" height="36" viewBox="0 0 36 36" fill="none" xmlns="http://www.w3.org/2000/svg">
<g clip-path="url(#clip0_6500_10824)">
<g clip-path="url(#clip1_6500_10824)">
<mask id="mask0_6500_10824" style="mask-type:luminance" maskUnits="userSpaceOnUse" x="0" y="0" width="36" height="36">
<path d="M36 18C36 8.05887 27.9411 0 18 0C8.05887 0 0 8.05887 0 18C0 27.9411 8.05887 36 18 36C27.9411 36 36 27.9411 36 18Z" fill="white"/>
</mask>
<g mask="url(#mask0_6500_10824)">
<path d="M18 36C27.9411 36 36 27.9411 36 18C36 8.05887 27.9411 0 18 0C8.05887 0 0 8.05887 0 18C0 27.9411 8.05887 36 18 36Z" fill="#0996C7"/>
<mask id="mask1_6500_10824" style="mask-type:luminance" maskUnits="userSpaceOnUse" x="17" y="9" width="12" height="14">
<path d="M17.8086 9.53369H28.2649V22.3075H17.8086V9.53369Z" fill="white"/>
</mask>
<g mask="url(#mask1_6500_10824)">
<path d="M23.2345 9.53369L18.8126 21.6824C18.7579 21.832 18.6622 21.9631 18.5365 22.0609C18.4107 22.1586 18.26 22.219 18.1016 22.235V22.2408H22.7759C23.1419 22.2408 23.4552 22.0081 23.5718 21.6828L27.9952 9.53369H23.2345Z" fill="white"/>
</g>
<path d="M17.7194 22.0565C17.9905 22.0565 18.2279 21.9218 18.3731 21.7177C18.3882 21.6964 18.4412 21.622 18.4788 21.5209L20.1007 17.0627L19.1519 14.459C19.0966 14.3272 19.0071 14.2125 18.8926 14.1269C18.7781 14.0413 18.6428 13.9879 18.5007 13.9721C18.3586 13.9564 18.2149 13.979 18.0845 14.0375C17.954 14.096 17.8416 14.1883 17.7589 14.3049C17.7434 14.3262 17.6803 14.4211 17.6531 14.5016L16.0312 18.9583L16.9843 21.5724C17.0462 21.7161 17.1487 21.8385 17.2793 21.9246C17.41 22.0106 17.563 22.0565 17.7194 22.0565Z" fill="white"/>
<mask id="mask2_6500_10824" style="mask-type:luminance" maskUnits="userSpaceOnUse" x="7" y="13" width="12" height="14">
<path d="M7.73828 13.4004H18.1946V26.489H7.73828V13.4004Z" fill="white"/>
</mask>
<g mask="url(#mask2_6500_10824)">
<path d="M18.0662 13.7817H13.3404C12.9744 13.7817 12.6611 14.0133 12.543 14.3402L8.12109 26.4889H12.8818L17.3041 14.3406C17.3614 14.1825 17.4646 14.0451 17.6003 13.9459C17.736 13.8466 17.8982 13.79 18.0662 13.7833V13.7817Z" fill="white"/>
</g>
</g>
</g>
</g>
<defs>
<clipPath id="clip0_6500_10824">
<rect width="36" height="36" fill="white"/>
</clipPath>
<clipPath id="clip1_6500_10824">
<rect width="36" height="36" fill="white"/>
</clipPath>
</defs>
</svg>
