<svg width="36" height="36" viewBox="0 0 36 36" fill="none" xmlns="http://www.w3.org/2000/svg">
<g clip-path="url(#clip0_6500_10849)">
<g clip-path="url(#clip1_6500_10849)">
<mask id="mask0_6500_10849" style="mask-type:luminance" maskUnits="userSpaceOnUse" x="0" y="0" width="36" height="36">
<path d="M36 18C36 8.05887 27.9411 0 18 0C8.05887 0 0 8.05887 0 18C0 27.9411 8.05887 36 18 36C27.9411 36 36 27.9411 36 18Z" fill="white"/>
</mask>
<g mask="url(#mask0_6500_10849)">
<path d="M18 36C27.9411 36 36 27.9411 36 18C36 8.05887 27.9411 0 18 0C8.05887 0 0 8.05887 0 18C0 27.9411 8.05887 36 18 36Z" fill="#551933"/>
<path d="M8.89509 14.1787C9.53515 13.8506 9.83918 13.2986 9.83918 12.5866C9.83918 11.8585 9.30312 10.8984 7.88702 10.8984H6.04688V16.5309H7.06296V14.3067H7.81502L9.0071 16.5309H10.1832L8.89509 14.1787ZM7.89504 13.4267H7.07098V11.7945H7.89504C8.41507 11.7945 8.75911 12.1385 8.75911 12.6186C8.75911 13.0666 8.4311 13.4267 7.89504 13.4267Z" fill="white"/>
<path d="M10.5977 12.5703H11.5978V14.9705C11.5978 15.4905 11.9018 15.7786 12.3498 15.7786C12.9099 15.7786 13.3099 15.3226 13.3099 14.7225V12.5783H14.31V16.5386H13.3259V16.0906C13.1099 16.3226 12.7499 16.6266 12.1178 16.6266C11.1177 16.6266 10.5977 15.9866 10.5977 14.9785V12.5703Z" fill="white"/>
<path d="M28.1524 10.8984H27.1523V16.5309H28.1524V10.8984Z" fill="white"/>
<path d="M29.9532 10.8984H28.9531V16.5309H29.9532V10.8984Z" fill="white"/>
<path d="M16.5189 16.6749C15.5348 16.6749 14.9267 16.2509 14.8867 16.2189L15.2948 15.4908C15.3908 15.5308 15.8949 15.8348 16.4309 15.8348C16.951 15.8348 17.143 15.6428 17.143 15.4508C17.143 15.1788 16.8149 15.0667 16.1269 14.8348C15.7428 14.6987 15.0708 14.4667 15.0708 13.6986C15.0708 12.9306 15.7428 12.4346 16.7589 12.4346C17.679 12.4346 18.175 12.8026 18.175 12.8026L17.791 13.5066C17.535 13.3786 17.1909 13.2186 16.7749 13.2186C16.3269 13.2186 16.1348 13.4346 16.1348 13.5866C16.1348 13.8587 16.5189 14.0107 17.0149 14.1227C17.615 14.2747 18.239 14.5707 18.239 15.3707C18.223 16.1628 17.567 16.6749 16.5189 16.6749Z" fill="white"/>
<path d="M20.3509 16.6749C19.3668 16.6749 18.7588 16.2509 18.7188 16.2189L19.1268 15.4908C19.2228 15.5308 19.7269 15.8348 20.2629 15.8348C20.7829 15.8348 20.9749 15.6428 20.9749 15.4508C20.9749 15.1788 20.6469 15.0667 19.9589 14.8348C19.5749 14.6987 18.9028 14.4667 18.9028 13.6986C18.9028 12.9306 19.5749 12.4346 20.591 12.4346C21.511 12.4346 22.0071 12.8026 22.0071 12.8026L21.623 13.5066C21.367 13.3786 21.023 13.2186 20.6069 13.2186C20.1589 13.2186 19.9908 13.4346 19.9908 13.5866C19.9908 13.8587 20.3749 14.0107 20.8709 14.1227C21.463 14.2747 22.0951 14.5707 22.0951 15.3707C22.0551 16.1628 21.407 16.6749 20.3509 16.6749Z" fill="white"/>
<path d="M26.5621 14.6188C26.5621 13.6188 26.0501 12.4106 24.61 12.4106C23.4179 12.4106 22.5938 13.3147 22.5938 14.4828C22.5938 15.7709 23.4179 16.643 24.682 16.643C25.698 16.643 26.3541 16.1069 26.3701 16.0909L26.0101 15.3629C25.65 15.5949 25.218 15.7869 24.69 15.7869C24.1699 15.7869 23.5939 15.4029 23.5939 14.8268H26.5701V14.6188H26.5621ZM23.5778 14.1308C23.5778 13.7308 23.9459 13.2667 24.5939 13.2667C25.21 13.2667 25.514 13.7227 25.514 14.1308H23.5778Z" fill="white"/>
<path d="M9.90187 19.4194C10.2139 19.4194 10.4939 19.4594 10.75 19.5394C10.998 19.6194 11.214 19.7314 11.39 19.8754C11.566 20.0195 11.702 20.1875 11.7981 20.3875C11.894 20.5875 11.9421 20.8035 11.9421 21.0435C11.9421 21.2516 11.9101 21.4356 11.846 21.6116C11.782 21.7876 11.694 21.9476 11.582 22.1076C11.47 22.2677 11.334 22.4197 11.19 22.5637C11.038 22.7077 10.886 22.8597 10.7179 23.0117L9.47781 24.1318C9.63784 24.0918 9.79788 24.0598 9.94989 24.0357C10.1019 24.0118 10.2539 23.9958 10.3899 23.9958H11.574C11.718 23.9958 11.83 24.0278 11.9181 24.0998C11.998 24.1718 12.046 24.2597 12.046 24.3798V25.0678H7.59766V24.6838C7.59766 24.6118 7.61369 24.5318 7.6537 24.4438C7.68569 24.3558 7.74967 24.2838 7.8377 24.2118L9.66182 22.5957C9.82185 22.4596 9.95791 22.3236 10.0699 22.2036C10.1819 22.0756 10.2779 21.9556 10.3579 21.8356C10.4299 21.7156 10.486 21.5956 10.526 21.4756C10.5659 21.3556 10.5819 21.2275 10.5819 21.0915C10.5819 20.8675 10.5179 20.6995 10.3979 20.5795C10.2779 20.4595 10.0939 20.4035 9.8459 20.4035C9.74184 20.4035 9.65387 20.4195 9.56584 20.4435C9.47781 20.4675 9.40581 20.4995 9.34183 20.5475C9.27784 20.5875 9.2218 20.6435 9.17378 20.6995C9.12583 20.7555 9.08582 20.8195 9.06177 20.8915C9.01382 21.0035 8.95778 21.0915 8.88578 21.1396C8.81378 21.1875 8.7178 21.2196 8.59778 21.2196C8.56579 21.2196 8.53373 21.2196 8.50173 21.2196C8.46974 21.2196 8.43775 21.2116 8.39774 21.2116L7.68569 21.0996C7.73371 20.8195 7.82167 20.5795 7.94971 20.3715C8.07775 20.1635 8.24573 19.9954 8.43775 19.8514C8.62977 19.7154 8.85379 19.6114 9.1098 19.5394C9.34183 19.4594 9.61387 19.4194 9.90187 19.4194Z" fill="white"/>
<path d="M17.5752 22.2679C17.5752 22.756 17.5191 23.18 17.3991 23.532C17.2791 23.8841 17.1191 24.1881 16.903 24.4201C16.6951 24.6521 16.4471 24.8282 16.159 24.9482C15.871 25.0602 15.5589 25.1242 15.2229 25.1242C14.8869 25.1242 14.5749 25.0681 14.2949 24.9482C14.0068 24.8362 13.7588 24.6601 13.5508 24.4201C13.3428 24.1881 13.1827 23.8921 13.0627 23.532C12.9428 23.172 12.8867 22.756 12.8867 22.2679C12.8867 21.7799 12.9428 21.3558 13.0627 21.0039C13.1827 20.6438 13.3428 20.3478 13.5508 20.1157C13.7588 19.8838 14.0068 19.7077 14.2949 19.5957C14.5829 19.4837 14.8869 19.4277 15.2229 19.4277C15.5589 19.4277 15.871 19.4837 16.159 19.5957C16.4471 19.7077 16.6951 19.8838 16.903 20.1157C17.1111 20.3478 17.2791 20.6438 17.3991 21.0039C17.5191 21.3639 17.5752 21.7879 17.5752 22.2679ZM16.183 22.2679C16.183 21.8839 16.159 21.5639 16.103 21.3239C16.047 21.0759 15.975 20.8838 15.887 20.7398C15.799 20.5958 15.695 20.4998 15.575 20.4518C15.463 20.3958 15.3429 20.3718 15.2229 20.3718C15.1029 20.3718 14.9909 20.3958 14.8709 20.4518C14.7589 20.5078 14.6549 20.6038 14.5669 20.7398C14.4789 20.8838 14.4069 21.0759 14.3508 21.3239C14.2949 21.5719 14.2708 21.8839 14.2708 22.2679C14.2708 22.66 14.2949 22.972 14.3508 23.22C14.4069 23.468 14.4789 23.6601 14.5669 23.8041C14.6549 23.9481 14.7589 24.0441 14.8709 24.0921C14.9829 24.1481 15.1029 24.1721 15.2229 24.1721C15.3429 24.1721 15.463 24.1481 15.575 24.0921C15.687 24.0361 15.791 23.94 15.887 23.8041C15.975 23.6601 16.055 23.468 16.103 23.22C16.159 22.98 16.183 22.66 16.183 22.2679Z" fill="white"/>
<path d="M23.0009 22.2679C23.0009 22.756 22.9449 23.18 22.8249 23.532C22.7049 23.8921 22.5448 24.1881 22.3288 24.4201C22.1208 24.6521 21.8728 24.8282 21.5848 24.9482C21.2967 25.0602 20.9847 25.1242 20.6487 25.1242C20.3127 25.1242 20.0006 25.0681 19.7206 24.9482C19.4326 24.8362 19.1846 24.6601 18.9765 24.4201C18.7685 24.1881 18.6085 23.8921 18.4885 23.532C18.3685 23.172 18.3125 22.756 18.3125 22.2679C18.3125 21.7799 18.3685 21.3558 18.4885 21.0039C18.6085 20.6518 18.7685 20.3478 18.9765 20.1157C19.1846 19.8838 19.4326 19.7077 19.7206 19.5957C20.0086 19.4837 20.3127 19.4277 20.6487 19.4277C20.9847 19.4277 21.2967 19.4837 21.5848 19.5957C21.8728 19.7077 22.1208 19.8838 22.3288 20.1157C22.5368 20.3478 22.7049 20.6438 22.8249 21.0039C22.9369 21.3639 23.0009 21.7879 23.0009 22.2679ZM21.6088 22.2679C21.6088 21.8839 21.5848 21.5639 21.5287 21.3239C21.4728 21.0759 21.4008 20.8838 21.3127 20.7398C21.2247 20.5958 21.1207 20.4998 21.0007 20.4518C20.8887 20.3958 20.7687 20.3718 20.6487 20.3718C20.5287 20.3718 20.4167 20.3958 20.2966 20.4518C20.1846 20.5078 20.0806 20.6038 19.9926 20.7398C19.9046 20.8838 19.8326 21.0759 19.7766 21.3239C19.7206 21.5719 19.6966 21.8839 19.6966 22.2679C19.6966 22.66 19.7206 22.972 19.7766 23.22C19.8326 23.468 19.9046 23.6601 19.9926 23.8041C20.0806 23.9481 20.1846 24.0441 20.2966 24.0921C20.4087 24.1481 20.5287 24.1721 20.6487 24.1721C20.7687 24.1721 20.8887 24.1481 21.0007 24.0921C21.1127 24.0361 21.2168 23.94 21.3127 23.8041C21.4008 23.6601 21.4808 23.468 21.5287 23.22C21.5848 22.98 21.6088 22.66 21.6088 22.2679Z" fill="white"/>
<path d="M28.4227 22.2679C28.4227 22.756 28.3668 23.18 28.2467 23.532C28.1267 23.8921 27.9668 24.1881 27.7507 24.4201C27.5427 24.6521 27.2946 24.8282 27.0066 24.9482C26.7186 25.0602 26.4066 25.1242 26.0706 25.1242C25.7346 25.1242 25.4225 25.0681 25.1425 24.9482C24.8545 24.8362 24.6065 24.6601 24.3984 24.4201C24.1904 24.1881 24.0304 23.8921 23.9104 23.532C23.7904 23.172 23.7344 22.756 23.7344 22.2679C23.7344 21.7799 23.7904 21.3558 23.9104 21.0039C24.0304 20.6438 24.1904 20.3478 24.3984 20.1157C24.6065 19.8838 24.8545 19.7077 25.1425 19.5957C25.4305 19.4837 25.7346 19.4277 26.0706 19.4277C26.4066 19.4277 26.7186 19.4837 27.0066 19.5957C27.2946 19.7077 27.5427 19.8838 27.7507 20.1157C27.9588 20.3478 28.1267 20.6438 28.2467 21.0039C28.3588 21.3639 28.4227 21.7879 28.4227 22.2679ZM27.0306 22.2679C27.0306 21.8839 27.0066 21.5639 26.9507 21.3239C26.8946 21.0759 26.8226 20.8838 26.7346 20.7398C26.6466 20.5958 26.5426 20.4998 26.4226 20.4518C26.3106 20.3958 26.1906 20.3718 26.0706 20.3718C25.9506 20.3718 25.8385 20.3958 25.7185 20.4518C25.6065 20.5078 25.5025 20.6038 25.4145 20.7398C25.3265 20.8838 25.2545 21.0759 25.1985 21.3239C25.1425 21.5719 25.1185 21.8839 25.1185 22.2679C25.1185 22.66 25.1425 22.972 25.1985 23.22C25.2545 23.468 25.3265 23.6601 25.4145 23.8041C25.5025 23.9481 25.6065 24.0441 25.7185 24.0921C25.8305 24.1481 25.9506 24.1721 26.0706 24.1721C26.1906 24.1721 26.3106 24.1481 26.4226 24.0921C26.5346 24.0361 26.6386 23.94 26.7346 23.8041C26.8226 23.6601 26.9027 23.468 26.9507 23.22C26.9986 22.98 27.0306 22.66 27.0306 22.2679Z" fill="white"/>
</g>
</g>
</g>
<defs>
<clipPath id="clip0_6500_10849">
<rect width="36" height="36" fill="white"/>
</clipPath>
<clipPath id="clip1_6500_10849">
<rect width="36" height="36" fill="white"/>
</clipPath>
</defs>
</svg>
