<svg width="36" height="36" viewBox="0 0 36 36" fill="none" xmlns="http://www.w3.org/2000/svg">
<g clip-path="url(#clip0_6500_10814)">
<path d="M18 36C27.9411 36 36 27.9411 36 18C36 8.05887 27.9411 0 18 0C8.05887 0 0 8.05887 0 18C0 27.9411 8.05887 36 18 36Z" fill="#C4162E"/>
<path d="M8.13045 23.3003C10.5543 23.3003 12.2292 21.8896 12.2292 19.7473V19.7328C12.2292 17.8034 10.7744 16.4066 8.76193 16.4066C7.68945 16.4066 6.81538 16.8245 6.37439 17.5127H6.33154L6.58862 14.6334H11.4857V12.7534H4.82465L4.34016 18.9385H6.27156C6.3968 18.7256 6.56555 18.5271 6.77912 18.3716C7.13841 18.0947 7.60114 17.9385 8.14494 17.9385C9.29061 17.9385 10.106 18.6972 10.1133 19.7757V19.7895C10.1133 20.8818 9.29848 21.6484 8.1377 21.6484C7.11598 21.6484 6.37439 21.0525 6.22014 20.2792L6.20564 20.2292H4.15625L4.1635 20.3359C4.29534 22.0452 5.82332 23.3003 8.13045 23.3003ZM17.6496 23.3003C20.3391 23.3003 21.9693 21.3076 21.9693 18.0519V18.038C21.9693 14.7817 20.3385 12.7534 17.6503 12.7534C14.9615 12.7534 13.3307 14.7824 13.3307 18.038V18.0519C13.3307 21.3083 14.9615 23.3003 17.6503 23.3003H17.6496ZM17.6496 21.6266C16.328 21.6266 15.5713 20.3003 15.5713 18.0519V18.038C15.5713 15.7889 16.328 14.4699 17.6503 14.4699C18.9726 14.4699 19.7287 15.7896 19.7287 18.038V18.0519C19.7287 20.3003 18.9726 21.6266 17.6503 21.6266H17.6496ZM27.5229 23.3003C30.211 23.3003 31.8418 21.3076 31.8418 18.0519V18.038C31.8418 14.781 30.211 12.7534 27.5229 12.7534C24.834 12.7534 23.2033 14.7824 23.2033 18.038V18.0519C23.2033 21.3083 24.834 23.3003 27.5229 23.3003ZM27.5229 21.6266C26.2006 21.6266 25.4438 20.3003 25.4438 18.0519V18.038C25.4438 15.7889 26.2006 14.4699 27.5229 14.4699C28.8445 14.4699 29.6012 15.7896 29.6012 18.038V18.0519C29.6012 20.3003 28.8445 21.6266 27.5229 21.6266Z" fill="white"/>
</g>
<defs>
<clipPath id="clip0_6500_10814">
<rect width="36" height="36" fill="white"/>
</clipPath>
</defs>
</svg>
