<svg preserveAspectRatio="none" width="100%" height="100%" overflow="visible" style="display: block;" viewBox="0 0 979.094 116.857" fill="none" xmlns="http://www.w3.org/2000/svg">
<g id="lines">
<path id="Vector 1" d="M13.6211 96V69C13.6211 51.3269 27.948 37 45.6211 37H458.271C475.944 37 490.271 22.6731 490.271 5V2.44809e-06" stroke="var(--stroke-0, #CDC6FF)" stroke-width="1.5" stroke-dasharray="2 4"/>
<path id="Vector 2" d="M965.715 96V69C965.715 51.3269 951.388 37 933.715 37H522.269C504.596 37 490.269 22.6731 490.269 5V2.44809e-06" stroke="var(--stroke-0, #CDC6FF)" stroke-width="1.5" stroke-dasharray="2 4"/>
<path id="Vector 3" d="M491.02 97C491.02 97.4142 490.684 97.75 490.27 97.75C489.855 97.75 489.52 97.4142 489.52 97H490.27H491.02ZM489.52 95.9896C489.52 95.5754 489.855 95.2396 490.27 95.2396C490.684 95.2396 491.02 95.5754 491.02 95.9896L490.27 95.9896H489.52ZM491.02 91.9479C491.02 92.3621 490.684 92.6979 490.27 92.6979C489.855 92.6979 489.52 92.3621 489.52 91.9479L490.27 91.9479H491.02ZM489.52 89.9271C489.52 89.5129 489.855 89.1771 490.27 89.1771C490.684 89.1771 491.02 89.5129 491.02 89.9271L490.27 89.9271H489.52ZM491.019 85.8854C491.019 86.2996 490.684 86.6354 490.269 86.6354C489.855 86.6354 489.519 86.2996 489.519 85.8854L490.269 85.8854H491.019ZM489.519 83.8646C489.519 83.4504 489.855 83.1146 490.269 83.1146C490.684 83.1146 491.019 83.4504 491.019 83.8646L490.269 83.8646H489.519ZM491.019 79.8229C491.019 80.2371 490.684 80.5729 490.269 80.5729C489.855 80.5729 489.519 80.2371 489.519 79.8229H490.269L491.019 79.8229ZM489.519 77.8021C489.519 77.3879 489.855 77.0521 490.269 77.0521C490.684 77.0521 491.019 77.3879 491.019 77.8021L490.269 77.8021H489.519ZM491.019 73.7604C491.019 74.1746 490.684 74.5104 490.269 74.5104C489.855 74.5104 489.519 74.1746 489.519 73.7604H490.269L491.019 73.7604ZM489.519 71.7396C489.519 71.3254 489.855 70.9896 490.269 70.9896C490.684 70.9896 491.019 71.3254 491.019 71.7396L490.269 71.7396H489.519ZM491.019 67.6979C491.019 68.1121 490.684 68.4479 490.269 68.4479C489.855 68.4479 489.519 68.1121 489.519 67.6979H490.269L491.019 67.6979ZM489.519 65.6771C489.519 65.2629 489.855 64.9271 490.269 64.9271C490.684 64.9271 491.019 65.2629 491.019 65.6771L490.269 65.6771H489.519ZM491.019 61.6354C491.019 62.0496 490.684 62.3854 490.269 62.3854C489.855 62.3854 489.519 62.0496 489.519 61.6354L490.269 61.6354H491.019ZM489.519 59.6146C489.519 59.2004 489.855 58.8646 490.269 58.8646C490.684 58.8646 491.019 59.2004 491.019 59.6146H490.269L489.519 59.6146ZM491.019 55.5729C491.019 55.9871 490.684 56.3229 490.269 56.3229C489.855 56.3229 489.519 55.9871 489.519 55.5729L490.269 55.5729H491.019ZM489.519 53.5521C489.519 53.1379 489.855 52.8021 490.269 52.8021C490.684 52.8021 491.019 53.1379 491.019 53.5521H490.269L489.519 53.5521ZM491.019 49.5104C491.019 49.9246 490.684 50.2604 490.269 50.2604C489.855 50.2604 489.519 49.9246 489.519 49.5104L490.269 49.5104H491.019ZM489.519 47.4896C489.519 47.0754 489.855 46.7396 490.269 46.7396C490.684 46.7396 491.019 47.0754 491.019 47.4896H490.269L489.519 47.4896ZM491.019 43.4479C491.019 43.8621 490.684 44.1979 490.269 44.1979C489.855 44.1979 489.519 43.8621 489.519 43.4479L490.269 43.4479H491.019ZM489.519 41.4271C489.519 41.0129 489.855 40.6771 490.269 40.6771C490.684 40.6771 491.019 41.0129 491.019 41.4271H490.269L489.519 41.4271ZM491.019 37.3854C491.019 37.7996 490.684 38.1354 490.269 38.1354C489.855 38.1354 489.519 37.7996 489.519 37.3854L490.269 37.3854H491.019ZM489.519 35.3646C489.519 34.9504 489.855 34.6146 490.269 34.6146C490.684 34.6146 491.019 34.9504 491.019 35.3646H490.269L489.519 35.3646ZM491.019 31.3229C491.019 31.7371 490.684 32.0729 490.269 32.0729C489.855 32.0729 489.519 31.7371 489.519 31.3229L490.269 31.3229L491.019 31.3229ZM489.519 29.3021C489.519 28.8879 489.855 28.5521 490.269 28.5521C490.684 28.5521 491.019 28.8879 491.019 29.3021L490.269 29.3021L489.519 29.3021ZM491.019 25.2604C491.019 25.6746 490.684 26.0104 490.269 26.0104C489.855 26.0104 489.519 25.6746 489.519 25.2604L490.269 25.2604L491.019 25.2604ZM489.519 23.2396C489.519 22.8254 489.855 22.4896 490.269 22.4896C490.684 22.4896 491.019 22.8254 491.019 23.2396L490.269 23.2396L489.519 23.2396ZM491.019 19.1979C491.019 19.6121 490.683 19.9479 490.269 19.9479C489.855 19.9479 489.519 19.6121 489.519 19.1979L490.269 19.1979L491.019 19.1979ZM489.519 17.1771C489.519 16.7629 489.855 16.4271 490.269 16.4271C490.683 16.4271 491.019 16.7629 491.019 17.1771L490.269 17.1771L489.519 17.1771ZM491.019 13.1354C491.019 13.5496 490.683 13.8854 490.269 13.8854C489.855 13.8854 489.519 13.5496 489.519 13.1354L490.269 13.1354L491.019 13.1354ZM489.519 11.1146C489.519 10.7004 489.855 10.3646 490.269 10.3646C490.683 10.3646 491.019 10.7004 491.019 11.1146L490.269 11.1146L489.519 11.1146ZM491.019 7.07292C491.019 7.48714 490.683 7.82293 490.269 7.82293C489.855 7.82293 489.519 7.48714 489.519 7.07293L490.269 7.07293L491.019 7.07292ZM489.519 5.05209C489.519 4.63788 489.855 4.30209 490.269 4.30209C490.683 4.30209 491.019 4.63787 491.019 5.05209L490.269 5.05209L489.519 5.05209ZM491.019 1.01042C491.019 1.42464 490.683 1.76043 490.269 1.76043C489.855 1.76043 489.519 1.42464 489.519 1.01043L490.269 1.01043L491.019 1.01042ZM490.27 97H489.52L489.52 95.9896H490.27L491.02 95.9896L491.02 97H490.27ZM490.27 91.9479L489.52 91.9479L489.52 89.9271H490.27L491.02 89.9271L491.02 91.9479H490.27ZM490.269 85.8854L489.519 85.8854L489.519 83.8646H490.269L491.019 83.8646L491.019 85.8854H490.269ZM490.269 79.8229H489.519L489.519 77.8021H490.269L491.019 77.8021L491.019 79.8229L490.269 79.8229ZM490.269 73.7604H489.519L489.519 71.7396H490.269L491.019 71.7396L491.019 73.7604L490.269 73.7604ZM490.269 67.6979H489.519L489.519 65.6771H490.269L491.019 65.6771L491.019 67.6979L490.269 67.6979ZM490.269 61.6354L489.519 61.6354L489.519 59.6146L490.269 59.6146H491.019L491.019 61.6354H490.269ZM490.269 55.5729L489.519 55.5729L489.519 53.5521L490.269 53.5521H491.019L491.019 55.5729H490.269ZM490.269 49.5104L489.519 49.5104L489.519 47.4896L490.269 47.4896H491.019L491.019 49.5104H490.269ZM490.269 43.4479L489.519 43.4479L489.519 41.4271L490.269 41.4271H491.019L491.019 43.4479H490.269ZM490.269 37.3854L489.519 37.3854L489.519 35.3646L490.269 35.3646H491.019L491.019 37.3854H490.269ZM490.269 31.3229L489.519 31.3229L489.519 29.3021L490.269 29.3021L491.019 29.3021L491.019 31.3229L490.269 31.3229ZM490.269 25.2604L489.519 25.2604L489.519 23.2396L490.269 23.2396L491.019 23.2396L491.019 25.2604L490.269 25.2604ZM490.269 19.1979L489.519 19.1979L489.519 17.1771L490.269 17.1771L491.019 17.1771L491.019 19.1979L490.269 19.1979ZM490.269 13.1354L489.519 13.1354L489.519 11.1146L490.269 11.1146L491.019 11.1146L491.019 13.1354L490.269 13.1354ZM490.269 7.07293L489.519 7.07293L489.519 5.05209L490.269 5.05209L491.019 5.05209L491.019 7.07292L490.269 7.07293ZM490.269 1.01043L489.519 1.01043L489.519 4.89618e-06L490.269 2.44809e-06L491.019 0L491.019 1.01042L490.269 1.01043Z" fill="var(--stroke-0, #CDC6FF)"/>
<g id="Ellipse 9" filter="url(#filter0_d_0_4)">
<circle cx="13.5" cy="100.357" r="6.5" fill="var(--fill-0, white)"/>
<circle cx="13.5" cy="100.357" r="5.5" stroke="var(--stroke-0, #5900D9)" stroke-width="2"/>
</g>
<g id="Ellipse 10" filter="url(#filter1_d_0_4)">
<circle cx="490.148" cy="100.357" r="6.5" fill="var(--fill-0, white)"/>
<circle cx="490.148" cy="100.357" r="5.5" stroke="var(--stroke-0, #5900D9)" stroke-width="2"/>
</g>
<g id="Ellipse 11" filter="url(#filter2_d_0_4)">
<circle cx="965.594" cy="100.357" r="6.5" fill="var(--fill-0, white)"/>
<circle cx="965.594" cy="100.357" r="5.5" stroke="var(--stroke-0, #5900D9)" stroke-width="2"/>
</g>
</g>
<defs>
<filter id="filter0_d_0_4" x="0" y="89.8574" width="27" height="27" filterUnits="userSpaceOnUse" color-interpolation-filters="sRGB">
<feFlood flood-opacity="0" result="BackgroundImageFix"/>
<feColorMatrix in="SourceAlpha" type="matrix" values="0 0 0 0 0 0 0 0 0 0 0 0 0 0 0 0 0 0 127 0" result="hardAlpha"/>
<feOffset dy="3"/>
<feGaussianBlur stdDeviation="3.5"/>
<feComposite in2="hardAlpha" operator="out"/>
<feColorMatrix type="matrix" values="0 0 0 0 0.303904 0 0 0 0 0.159755 0 0 0 0 0.511218 0 0 0 0.3 0"/>
<feBlend mode="normal" in2="BackgroundImageFix" result="effect1_dropShadow_0_4"/>
<feBlend mode="normal" in="SourceGraphic" in2="effect1_dropShadow_0_4" result="shape"/>
</filter>
<filter id="filter1_d_0_4" x="476.648" y="89.8574" width="27" height="27" filterUnits="userSpaceOnUse" color-interpolation-filters="sRGB">
<feFlood flood-opacity="0" result="BackgroundImageFix"/>
<feColorMatrix in="SourceAlpha" type="matrix" values="0 0 0 0 0 0 0 0 0 0 0 0 0 0 0 0 0 0 127 0" result="hardAlpha"/>
<feOffset dy="3"/>
<feGaussianBlur stdDeviation="3.5"/>
<feComposite in2="hardAlpha" operator="out"/>
<feColorMatrix type="matrix" values="0 0 0 0 0.303904 0 0 0 0 0.159755 0 0 0 0 0.511218 0 0 0 0.3 0"/>
<feBlend mode="normal" in2="BackgroundImageFix" result="effect1_dropShadow_0_4"/>
<feBlend mode="normal" in="SourceGraphic" in2="effect1_dropShadow_0_4" result="shape"/>
</filter>
<filter id="filter2_d_0_4" x="952.094" y="89.8574" width="27" height="27" filterUnits="userSpaceOnUse" color-interpolation-filters="sRGB">
<feFlood flood-opacity="0" result="BackgroundImageFix"/>
<feColorMatrix in="SourceAlpha" type="matrix" values="0 0 0 0 0 0 0 0 0 0 0 0 0 0 0 0 0 0 127 0" result="hardAlpha"/>
<feOffset dy="3"/>
<feGaussianBlur stdDeviation="3.5"/>
<feComposite in2="hardAlpha" operator="out"/>
<feColorMatrix type="matrix" values="0 0 0 0 0.303904 0 0 0 0 0.159755 0 0 0 0 0.511218 0 0 0 0.3 0"/>
<feBlend mode="normal" in2="BackgroundImageFix" result="effect1_dropShadow_0_4"/>
<feBlend mode="normal" in="SourceGraphic" in2="effect1_dropShadow_0_4" result="shape"/>
</filter>
</defs>
</svg>
