<svg width="10" height="10" viewBox="0 0 10 10" fill="none" xmlns="http://www.w3.org/2000/svg">
<path d="M7.77908 1.66675C7.81538 1.66675 7.85185 1.66944 7.88759 1.67651C7.94436 1.68774 7.99688 1.71019 8.04601 1.73728C8.0908 1.76196 8.13389 1.79152 8.17188 1.82951C8.20949 1.86713 8.23845 1.90998 8.26302 1.95429C8.29028 2.00341 8.31242 2.0559 8.32379 2.11271C8.33102 2.14885 8.33464 2.18558 8.33464 2.2223V7.77786C8.33464 8.08468 8.08591 8.33342 7.77908 8.33342C7.47226 8.33342 7.22352 8.08468 7.22352 7.77786V3.56345L2.61632 8.17065C2.39936 8.38761 2.04769 8.38761 1.83073 8.17065C1.61377 7.9537 1.61377 7.60202 1.83073 7.38506L6.43793 2.77786H2.22352C1.9167 2.77786 1.66797 2.52913 1.66797 2.2223C1.66797 1.91548 1.9167 1.66675 2.22352 1.66675H7.77908Z" fill="white"/>
</svg>
