<svg preserveAspectRatio="none" width="100%" height="100%" overflow="visible" style="display: block;" viewBox="0 0 16 16" fill="none" xmlns="http://www.w3.org/2000/svg">
<g id="SVG" clip-path="url(#clip0_0_11)">
<path id="Vector" d="M14.6654 7.99967H13.012C12.7207 7.99905 12.4371 8.09388 12.2048 8.26965C11.9724 8.44543 11.804 8.69247 11.7254 8.97301L10.1587 14.5463C10.1486 14.581 10.1275 14.6114 10.0987 14.633C10.0698 14.6546 10.0348 14.6663 9.9987 14.6663C9.96264 14.6663 9.92755 14.6546 9.8987 14.633C9.86985 14.6114 9.8488 14.581 9.8387 14.5463L6.1587 1.45301C6.1486 1.41839 6.12755 1.38798 6.0987 1.36634C6.06985 1.3447 6.03476 1.33301 5.9987 1.33301C5.96264 1.33301 5.92755 1.3447 5.8987 1.36634C5.86985 1.38798 5.8488 1.41839 5.8387 1.45301L4.27203 7.02634C4.19367 7.30578 4.02629 7.55202 3.79527 7.72768C3.56426 7.90335 3.28224 7.99884 2.99203 7.99967H1.33203" stroke="var(--stroke-0, #5B646F)" stroke-width="1.33333" stroke-linecap="round" stroke-linejoin="round"/>
</g>
<defs>
<clipPath id="clip0_0_11">
<rect width="16" height="16" fill="white"/>
</clipPath>
</defs>
</svg>
