<svg width="53" height="53" viewBox="0 0 53 53" fill="none" xmlns="http://www.w3.org/2000/svg">
<g filter="url(#filter0_d_6462_18401)">
<path d="M44.25 22.1248C44.25 25.9408 44.0471 29.6455 43.674 33.18C43.3009 36.7146 40.6696 39.1888 37.3053 39.5488C33.7773 39.9284 30.0725 40.1248 26.25 40.1248C22.4275 40.1248 18.7293 39.9218 15.1947 39.5488C11.6602 39.1757 9.186 36.5444 8.826 33.18C8.44636 29.652 8.25 25.9473 8.25 22.1248C8.25 18.3022 8.45291 14.604 8.826 11.0695C9.19909 7.53494 11.8304 5.06076 15.1947 4.70076C18.7227 4.32112 22.4275 4.12476 26.25 4.12476C30.0725 4.12476 33.7707 4.32766 37.3053 4.70076C40.8398 5.07385 43.314 7.70512 43.674 11.0695C44.0536 14.5975 44.25 18.3022 44.25 22.1248Z" fill="url(#paint0_radial_6462_18401)"/>
</g>
<path d="M32.9775 25.1848C32.7975 27.1873 31.35 28.4998 29.25 28.4998H22.5C20.43 28.4998 18.75 26.8198 18.75 24.7498V19.4998C18.75 17.4598 19.98 16.0348 21.8925 15.7948C22.0875 15.7648 22.29 15.7498 22.5 15.7498H29.25C29.445 15.7498 29.6325 15.7573 29.8125 15.7873C31.605 15.9973 32.82 17.2498 32.9775 19.0648C33 19.2823 32.82 19.4623 32.6025 19.4623H31.44C30.72 19.4623 30.0525 19.7398 29.5725 20.2348C29.0025 20.7898 28.7175 21.5698 28.785 22.3498C28.905 23.7148 30.105 24.7873 31.53 24.7873H32.6025C32.82 24.7873 33 24.9673 32.9775 25.1848Z" fill="white"/>
<path d="M33.7531 21.3523V22.8973C33.7531 23.3098 33.4231 23.6473 33.0031 23.6623H31.5331C30.7231 23.6623 29.9806 23.0698 29.9131 22.2598C29.8681 21.7873 30.0481 21.3448 30.3631 21.0373C30.6406 20.7523 31.0231 20.5873 31.4431 20.5873H33.0031C33.4231 20.6023 33.7531 20.9398 33.7531 21.3523Z" fill="white"/>
<defs>
<filter id="filter0_d_6462_18401" x="0.000513077" y="1.23978e-05" width="52.499" height="52.499" filterUnits="userSpaceOnUse" color-interpolation-filters="sRGB">
<feFlood flood-opacity="0" result="BackgroundImageFix"/>
<feColorMatrix in="SourceAlpha" type="matrix" values="0 0 0 0 0 0 0 0 0 0 0 0 0 0 0 0 0 0 127 0" result="hardAlpha"/>
<feOffset dy="4.12474"/>
<feGaussianBlur stdDeviation="4.12474"/>
<feComposite in2="hardAlpha" operator="out"/>
<feColorMatrix type="matrix" values="0 0 0 0 0.505882 0 0 0 0 0.101961 0 0 0 0 0.905882 0 0 0 0.2 0"/>
<feBlend mode="normal" in2="BackgroundImageFix" result="effect1_dropShadow_6462_18401"/>
<feBlend mode="normal" in="SourceGraphic" in2="effect1_dropShadow_6462_18401" result="shape"/>
</filter>
<radialGradient id="paint0_radial_6462_18401" cx="0" cy="0" r="1" gradientUnits="userSpaceOnUse" gradientTransform="translate(26.25 47.3794) rotate(-90) scale(66.3949)">
<stop stop-color="#C822D7"/>
<stop offset="0.711538" stop-color="#170FFF"/>
<stop offset="1" stop-color="#190BE4"/>
</radialGradient>
</defs>
</svg>
