<svg width="56" height="56" viewBox="0 0 56 56" fill="none" xmlns="http://www.w3.org/2000/svg">
<g clip-path="url(#clip0_6462_17921)">
<path d="M56 28C56 33.936 55.6844 39.6989 55.104 45.1971C54.5236 50.6953 50.4305 54.544 45.1971 55.104C39.7091 55.6945 33.9462 56 28 56C22.0538 56 16.3011 55.6844 10.8029 55.104C5.30473 54.5236 1.456 50.4305 0.896 45.1971C0.305455 39.7091 0 33.9462 0 28C0 22.0538 0.315636 16.3011 0.896 10.8029C1.47636 5.30473 5.56945 1.456 10.8029 0.896C16.2909 0.305455 22.0538 0 28 0C33.9462 0 39.6989 0.315636 45.1971 0.896C50.6953 1.47636 54.544 5.56945 55.104 10.8029C55.6945 16.2909 56 22.0538 56 28Z" fill="url(#paint0_radial_6462_17921)"/>
<path d="M42.5721 22.5438C43.7889 22.5438 44.4538 23.948 43.6864 24.8934L28.8309 43.1835C27.3239 45.0368 24.3758 43.4454 25.0966 41.1708L25.0868 41.162L30.6845 23.5458C30.8717 22.9467 31.4333 22.5438 32.0604 22.5438H42.5721ZM27.1669 12.8182C28.6739 10.9648 31.623 12.5563 30.9022 14.8309L30.912 14.8397L25.3143 32.4569C25.1271 33.0557 24.5653 33.4577 23.9384 33.4579H13.4257C12.2091 33.4575 11.5449 32.0535 12.3124 31.1083L27.1669 12.8182Z" fill="white"/>
</g>
<defs>
<radialGradient id="paint0_radial_6462_17921" cx="0" cy="0" r="1" gradientUnits="userSpaceOnUse" gradientTransform="translate(28 67.285) rotate(-90) scale(103.281)">
<stop stop-color="#09218B"/>
<stop offset="1" stop-color="#0E155A"/>
</radialGradient>
<clipPath id="clip0_6462_17921">
<rect width="56" height="56" fill="white"/>
</clipPath>
</defs>
</svg>
